<svg width="479" height="479" viewBox="0 0 479 479" fill="none" xmlns="http://www.w3.org/2000/svg">
<path d="M399.167 31.9167C412.283 31.9167 423.709 36.6799 433.015 45.985C442.32 55.2904 447.084 66.718 447.084 79.8337V319.334C447.084 332.449 442.32 343.876 433.015 353.181C423.709 362.487 412.283 367.25 399.167 367.25H123.064L79.5029 410.811C75.4597 414.854 70.6984 417.735 65.2139 418.806C59.7238 419.879 54.237 418.997 48.9902 416.749C43.7461 414.501 39.3284 411.146 36.2754 406.473C33.2272 401.808 31.917 396.406 31.917 390.684V79.8337C31.917 66.718 36.68 55.2904 45.9854 45.985C55.2907 36.6797 66.7183 31.9167 79.834 31.9167H399.167Z" fill="url(#paint0_linear_612_101)" stroke="#CBCBCB" stroke-width="16"/>
<path d="M178.324 140.318C178.324 140.422 178.324 140.526 178.975 140.859C179.626 141.192 180.928 141.752 184.381 142.328" stroke="white" stroke-width="32" stroke-linecap="round"/>
<path d="M295.359 139.318C295.254 139.318 295.148 139.318 294.396 139.485C293.644 139.653 292.249 139.987 287.324 141.632" stroke="white" stroke-width="32" stroke-linecap="round"/>
<path d="M322.39 122.099C322.39 122.155 322.39 122.211 324.121 122.24C325.852 122.269 329.315 122.269 334.792 122.659" stroke="white" stroke-width="16" stroke-linecap="round"/>
<path d="M144.016 119.163C143.962 119.109 143.909 119.055 146.297 119.028C148.684 119 153.516 119 158.493 119" stroke="white" stroke-width="16" stroke-linecap="round"/>
<path d="M237.001 220.5C207.801 196.9 93.1672 217.667 40.5005 227.5C1.30049 370.3 261.834 313 396.001 270C414.668 271.833 450.601 264.5 437.001 220.5C423.401 176.5 297.334 202.167 237.001 220.5Z" fill="white"/>
<path d="M43.4248 225.74C48.0351 225.74 58.7023 225.245 63.5414 223.855C69.0447 222.275 75.8637 221.171 84.0402 220.439C89.7239 219.929 95.0727 218.555 100.768 217.96C105.882 217.427 110.862 216.45 117.603 215.738C129.324 214.5 136.657 214.953 142.769 213.897C147.833 213.022 152.862 211.253 159.499 210.282C170.547 208.666 189.103 209.192 203.139 208.625C218.516 208.004 223.972 210.414 228.674 213.605C231.024 214.685 233.426 215.626 235.741 216.685C236.903 217.217 238.037 217.738 239.787 218.594" stroke="#CBCBCB" stroke-width="4" stroke-linecap="round"/>
<path d="M241.477 218.618C243.379 218.618 252.238 216.934 259.496 215.323C265.016 214.097 271.501 213.688 276.831 211.606C281.614 209.738 285.986 207.171 291.507 205.614C296.636 204.168 301.841 204.008 308.007 203.284C314.414 202.532 319.813 201.108 325.142 200.179C333.872 198.659 346.016 198.904 351.309 198.216C357.585 197.4 378.855 196.541 392.411 197.182C397.533 197.425 402.624 199.072 407.603 200.512C412.483 201.924 418.283 203.901 424.516 205.775C428.649 207.018 432.02 208.71 434.268 209.819C436.248 211.404 437.401 213.577 437.822 216.06C438.032 217.305 438.235 218.519 438.444 220.371" stroke="#CBCBCB" stroke-width="4" stroke-linecap="round"/>
<path d="M241.37 221.925C241.902 220.422 243.087 215.931 242.714 213.289C242.606 212.52 241.17 213.543 240.621 214.93C240.072 216.317 240.072 218.199 240.599 219.549C241.125 220.899 242.178 221.659 243.239 221.469C248.456 220.532 249.646 215.025 250.722 214.4C254.474 212.223 245.214 221.702 241.93 228.349C237.524 237.267 234.142 242.429 230.062 246.288C225.618 250.491 215.786 251.45 208.582 252.741C202.282 253.869 195.104 254.771 187.27 255.116C184.127 255.254 197.642 255.36 205.786 255.682C214.281 256.017 220.706 254.955 223.014 253.049C228.588 248.448 233.137 243.944 237.238 239.219C238.973 237.219 240.276 234.99 241.762 233.683C243.205 232.413 244.677 237.52 247.429 242.969C251.944 251.91 269.096 254.022 286.879 258.034C309.027 260.301 323.737 260.63 328.016 259.5C330.06 258.74 331.844 257.602 335.44 253.429" stroke="#CBCBCB" stroke-width="16" stroke-linecap="round"/>
<path d="M59.0713 116.764C59.0713 106.708 62.5517 84.8026 69.2258 77.6326C77.0289 69.2496 85.7375 65.4095 95.7324 62.8222C112.64 63.2988 120.386 68.2276 127.851 73.2722C129.595 74.6427 131.263 76.1459 133.52 77.6946" stroke="white" stroke-width="8" stroke-linecap="round"/>
<path d="M375.149 90.6333C376.057 88.2685 382.286 80.7929 392.683 71.6594C400.112 65.134 410.148 65.2766 422.884 66.9736C436.985 68.8526 428.309 89.3738 429.748 97.9455C431.027 106.558 431.782 113.265 432.419 118.694C432.701 122.053 432.897 126.641 430.047 135.384" stroke="white" stroke-width="8" stroke-linecap="round"/>
<path d="M401.318 100.9C401.318 100.814 401.847 100.573 402.929 100.299C404.007 100.025 405.11 100.605 405.973 101.301C408.676 103.48 408.76 108.335 408.289 109.309C408.057 109.788 407.415 109.961 406.925 109.879C405.372 108.425 404.57 106.227 403.053 104.418C402.594 104.031 402.115 103.695 400.625 102.769" stroke="white" stroke-width="8" stroke-linecap="round"/>
<path d="M100.423 98.1241C99.9887 97.8802 97.2541 98.777 93.8981 101.574C92.3124 102.895 91.4156 104.204 91.1501 105.154C91.0265 105.597 91.5524 106.023 92.0378 106.208C94.1251 107.003 96.3412 104.925 99.402 102.969C100.105 102.511 100.549 102.161 100.867 101.702C101.185 101.242 101.362 100.684 101.545 99.9635" stroke="white" stroke-width="8" stroke-linecap="round"/>
<defs>
<linearGradient id="paint0_linear_612_101" x1="239.5" y1="39.9167" x2="239.5" y2="411.26" gradientUnits="userSpaceOnUse">
<stop offset="0.504808" stop-color="#CBCBCB"/>
<stop offset="0.504908" stop-color="white"/>
</linearGradient>
</defs>
</svg>
