<?xml version="1.0" encoding="UTF-8"?>
<svg width="204.89609" height="204.89609" 
viewBox="0 0 204.89609 204.89609" 
preserveAspectRatio="xMinYMin"
xmlns:xlink="http://www.w3.org/1999/xlink"
xmlns="http://www.w3.org/2000/svg">
<!-- Generated by PQINA - https://pqina.nl/ -->
<title></title>
<g transform="rotate(NaN 102.448045 102.448045) translate(102.448045 102.448045) scale(NaN) translate(-102.448045 -102.448045) translate(0 0)">
<g transform="scale(1 1) translate(0 0)">
<svg version="1.1" xmlns="http://www.w3.org/2000/svg" xmlns:xlink="http://www.w3.org/1999/xlink" width="204.89609" height="204.89609" viewBox="0,0,204.89609,204.89609" style="overflow: visible;"><g transform="translate(-137.55195,-77.55196)"><g stroke-miterlimit="10"><path d="M189.35315,128.50098c-3.1434,-6.91549 -13.47806,-19.34566 -12.67928,-27.0749c0.03427,-0.33157 0.19849,-0.76582 0.51989,-0.85423c3.61438,-0.99435 21.6629,13.86972 24.5987,16.71257" fill="#ffffff" stroke="#000000" stroke-width="2.5" stroke-linecap="round"></path><path d="M238.19287,121.70724c2.9358,-2.84285 20.98432,-17.70692 24.59871,-16.71257c0.3214,0.08842 0.48563,0.52267 0.51989,0.85423c0.79878,7.72923 -9.53588,20.15941 -12.67928,27.0749" fill="#ffffff" stroke="#000000" stroke-width="2.5" stroke-linecap="round"></path><path d="M137.55196,282.44804v-204.89609h204.89609v204.89609z" fill="none" stroke="none" stroke-width="none" stroke-linecap="butt"></path><path d="M153.58016,243.99956c2.01672,-8.64208 8.91645,-15.64787 15.41098,-15.64787c6.49453,0 10.1245,7.00579 8.10779,15.64787c-2.01672,8.64208 -8.91645,15.64787 -15.41098,15.64787c-6.49453,0 -10.1245,-7.00579 -8.10779,-15.64787z" fill="#000000" stroke="#ffffff" stroke-width="0.5" stroke-linecap="butt"></path><path d="M199.73621,203.12772c2.01672,-8.64208 8.91645,-15.64787 15.41098,-15.64787c6.49453,0 10.1245,7.00579 8.10779,15.64787c-2.01672,8.64208 -8.91646,15.64788 -15.41099,15.64788c-6.49453,0 -10.1245,-7.0058 -8.10778,-15.64787z" fill="#000000" stroke="#ffffff" stroke-width="0.5" stroke-linecap="butt"></path><path d="M163.09182,203.87495c0,7.43569 -0.84602,40.15321 2.01263,45.18519c2.51641,4.42955 24.92452,4.18598 30.12328,4.74015c3.23158,0.34447 13.3174,-0.50189 19.1423,0.51577c5.54439,0.96866 6.84862,3.84314 9.37605,2.65863c2.44651,-1.14658 6.65725,-4.56878 8.88406,-6.33858c5.73188,-4.55551 13.22318,-6.39735 19.0055,-10.80832c6.40648,-4.8871 10.63284,-11.7461 15.95385,-17.67934c1.93102,-2.15321 8.37867,-8.03849 8.58043,-10.69851c0.19106,-2.51901 -2.1981,-21.21455 -6.65044,-31.54124c-1.90387,-4.41581 -7.48644,-6.12226 -7.99508,-6.31171c-3.76011,-1.40044 -10.85994,0.49052 -14.99415,0.26497c-8.16165,-0.44528 -18.19899,-9.06001 -30.93321,-7.34406c-10.90978,1.4701 -24.64348,12.97936 -31.37623,16.07754" fill="#ff540a" stroke="none" stroke-width="0" stroke-linecap="round"></path><path d="M268.69619,184.52156c0.88389,-0.88388 1.76777,0 1.76777,0l0.61166,0.84728c0.53749,2.0154 1.47606,3.87579 2.30929,5.7846c1.194,4.22254 7.36946,17.63201 5.05477,21.45179c-3.75626,6.19869 -13.0892,11.86337 -17.97516,17.72353c-3.26342,4.46243 -33.87035,29.47273 -38.36298,28.68217c-0.88197,-0.1552 -0.7264,-1.63711 -1.0896,-2.45567c-0.77981,-13.82053 -0.32134,-26.28129 0.4647,-39.98684c-2.92075,0.27299 -8.29093,-1.129 -10.65907,-1.31774c-10.20947,-0.81377 -34.39544,-1.3299 -42.80163,-5.35172c0,0 -1.11803,-0.55902 -0.55902,-1.67705c0.55901,-1.11803 1.67705,-0.55902 1.67705,-0.55902c4.93433,2.6303 34.4274,4.5015 41.88224,5.0957c2.10002,0.16741 9.33132,1.91756 10.9264,1.16011c0.0043,-0.00205 0.00862,-0.00409 0.01293,-0.00615c0.1405,-0.1422 0.33335,-0.25813 0.59788,-0.30265c6.84047,-3.64502 23.72728,-18.24892 29.80841,-23.46131c4.56204,-3.90984 8.38453,-8.06125 12.59664,-12.2782c0.19275,-0.19297 0.80313,-0.78542 1.346,-0.92331c-0.64238,-0.03948 -1.76321,-0.13563 -2.27127,-0.20965c-1.65181,-0.24066 -3.30127,-0.49747 -4.9495,-0.76148c-5.38967,-0.86334 -10.76965,-1.79376 -16.15377,-2.69111c-7.32269,-1.22126 -24.27523,-8.21329 -31.2368,-4.58999c-4.86457,2.53187 -9.45994,6.73824 -14.30327,9.58305c-3.41019,2.00304 -6.89682,3.77065 -10.43429,5.53938c-1.70705,0.85352 -4.58348,1.73938 -5.98425,3.07913c-2.18062,2.08562 -3.46652,5.55315 -5.35313,7.93885c-3.43155,4.33935 -7.83196,6.96325 -11.64249,10.78934l-0.05444,0.25231c0,0 -0.55901,1.11803 -1.67705,0.55901c-1.11803,-0.55901 -0.55902,-1.67705 -0.55902,-1.67705l0.52274,-0.90204c3.7651,-3.75136 8.07202,-6.30356 11.44438,-10.56602c1.97187,-2.49232 3.31041,-6.04819 5.61314,-8.22196c1.61085,-1.52064 4.60744,-2.5053 6.57209,-3.48763c3.48746,-1.74373 6.92434,-3.48435 10.28616,-5.45897c4.83811,-2.84175 9.76985,-7.53457 14.75454,-9.79085c8.11406,-3.67276 24.13443,3.10036 32.46269,4.48747c24.2869,4.04782 34.67991,0.62645 10.64789,21.22788c-4.91546,4.21326 -23.14543,19.63698 -29.9522,23.55698c-0.81232,13.9367 -1.30786,26.50551 -0.55353,40.47273c0.42407,-0.55086 1.52433,-1.75546 2.09812,-2.14988c3.33156,-2.2901 6.91151,-4.29074 10.33122,-6.45032c8.33581,-5.26416 16.7136,-10.67562 22.58217,-18.68677c5.30616,-6.37054 12.76263,-11.27644 17.80951,-17.48397c0.04923,-0.06055 -4.74404,-17.42194 -5.27308,-19.30988c-0.86768,-1.97485 -1.80266,-3.89174 -2.36933,-5.97639l0.03449,0.27011c0,0 -0.88389,-0.88389 0,-1.76777z" fill="#ce4308" stroke="none" stroke-width="0.5" stroke-linecap="butt"></path><path d="M165.40051,215.89991c1.25,0 1.25,1.25 1.25,1.25l-0.02427,1.39949c-0.25394,1.26814 -0.55826,2.52601 -0.87194,3.78071c-1.1693,5.71717 -2.53681,21.01076 -0.284,26.31244c0.30568,0.71937 8.35846,2.50969 9.6789,2.77393c12.83489,2.17227 27.12862,1.46519 40.11724,0.84669c0,0 1.24858,-0.05945 1.30804,1.18913c0.05946,1.24858 -1.18913,1.30804 -1.18913,1.30804c-13.21595,0.62933 -27.62045,1.26363 -40.68685,-0.88483c-2.02358,-0.40448 -9.98818,-1.88518 -11.0993,-3.57496c-1.79412,-2.72849 -1.05628,-24.58539 -0.284,-28.5189c0.30887,-1.23547 0.61014,-2.4737 0.85958,-3.72253l-0.02428,-0.9092c0,0 0,-1.25 1.25,-1.25z" fill="#ce4308" stroke="none" stroke-width="0.5" stroke-linecap="butt"></path><path d="M193.14273,185.04402c-0.30317,-1.21268 0.9095,-1.51585 0.9095,-1.51585l1.31767,-0.32847c1.02976,-0.33977 2.0946,-0.59242 3.17028,-0.72943c9.86856,-0.00329 23.66585,3.77134 33.36909,1.13319c0.31903,-0.2963 0.66714,-0.33218 0.95105,-0.28383c0.10532,-0.03437 0.21011,-0.06957 0.31433,-0.10564c0,0 1.18585,-0.39529 1.58114,0.79057c0.07667,0.23003 0.09386,0.43032 0.07174,0.60374c4.13094,3.38337 5.23325,6.76063 3.95053,12.25579c0.25516,0.17676 0.47482,0.4811 0.47482,1.0051c0,1.25 -1.25,1.25 -1.25,1.25l-0.38108,-0.00131c-0.30477,0.20282 -0.76856,0.33968 -1.33528,-0.03813c-0.00873,-0.00582 -0.01734,-0.01166 -0.02582,-0.01753c-1.86076,-0.3862 -2.85308,-1.08387 -4.61338,-1.7098c-3.17464,-1.12884 -7.85511,-0.96337 -11.20573,-0.96121c-10.81043,0 -21.5786,-0.34099 -32.39462,-0.34099c0,0 -0.02328,0 -0.06348,-0.00317c-0.03462,0.00209 -0.07028,0.00317 -0.10702,0.00317c-1.25,0 -1.25,-1.25 -1.25,-1.25l0.00764,-0.30854c0.5444,-4.89962 2.37509,-7.14729 6.53531,-9.35205c-0.00955,-0.03078 -0.01846,-0.06264 -0.02671,-0.09563zM198.69553,184.96545c-0.89413,0.10893 -1.7731,0.34686 -2.62665,0.63456l-0.46955,0.11771c0.20487,0.88977 -0.68491,1.33467 -0.68491,1.33467c-3.5362,1.75785 -5.01313,3.12082 -5.62186,6.49933c10.39727,0.02421 20.75382,0.33952 31.14905,0.33952c3.62037,0.00221 8.54006,-0.12275 11.982,1.08478c1.60292,0.56235 2.33154,1.19217 3.86695,1.55302c1.25207,-5.02666 0.31691,-7.49623 -3.74384,-10.53562c-10.13997,2.56883 -23.57315,-1.02371 -33.85118,-1.02796z" fill="#000000" stroke="none" stroke-width="0.5" stroke-linecap="butt"></path><path d="M232.59529,185.98156c4.06074,3.03939 4.99585,5.53288 3.74378,10.55954c-1.53542,-0.36085 -2.3614,-1.0134 -3.96432,-1.57575c-3.44194,-1.20753 -8.26676,-1.05233 -11.88714,-1.05454c-10.39523,0 -20.84744,-0.32903 -31.24471,-0.35324c0.60873,-3.37851 2.08632,-4.75732 5.62252,-6.51517c0,0 0.89073,-0.44876 0.68586,-1.33853l0.46974,-0.11836c0.85356,-0.2877 1.734,-0.5298 2.62813,-0.63873c10.27803,0.00424 23.80617,3.60361 33.94614,1.03479z" fill="#f5994b" stroke="none" stroke-width="0.5" stroke-linecap="butt"></path><path d="M181.24051,154.60414c0,-18.41703 14.92995,-33.34698 33.34698,-33.34698c18.41703,0 33.34699,14.92995 33.34699,33.34698c0,18.41703 -14.92996,33.34699 -33.34699,33.34699c-18.41703,0 -33.34698,-14.92996 -33.34698,-33.34699z" fill="#f5994b" stroke="none" stroke-width="NaN" stroke-linecap="butt"></path><path d="M249.58021,155.35345c1.81585,0.36317 1.45268,2.17902 1.45268,2.17902l-0.31025,1.39339l-0.83903,2.09758c-0.26261,0.70331 -0.94051,1.20412 -1.73539,1.20412c-0.78476,0 -1.45551,-0.48816 -1.72516,-1.17738c-0.19559,0.07028 -0.40644,0.10856 -0.62623,0.10856c-0.21213,0 -0.41592,-0.03567 -0.60572,-0.10133c-7.4413,12.09184 -18.70039,20.62256 -33.38255,20.62256c-16.07027,-0.02033 -24.12843,-9.19782 -32.92074,-21.28385c0,0 -0.92714,-1.27481 0.10554,-2.32751c0.02501,-0.09767 0.05812,-0.19913 0.10025,-0.30447c0.68775,-1.71936 2.40711,-1.03162 2.40711,-1.03162c5.79898,2.32412 10.54681,0.5867 14.57857,-2.41704c3.89882,-1.0072 8.42564,-2.21086 9.83382,-2.4775c3.72456,-0.70526 7.56376,-0.84415 11.41153,-0.83947c0.15894,0.21905 0.33205,0.42404 0.5213,0.61176c3.40559,3.37809 8.42007,3.06592 12.77375,3.06592c2.45993,0 5.7068,0.53444 8.12505,0.04954c1.17908,-0.23642 2.109,-1.15615 3.16011,-1.74037l1.28038,-0.52811c0,0 0.87384,-0.34953 1.62477,0.07273c0.04679,-0.44115 0.31415,-1.70152 1.84189,-1.70152l0,0.00001c1.85181,0 1.85181,1.85181 1.85181,1.85181l-0.04954,2.34932c-0.08756,0.18454 -0.17587,0.36853 -0.26497,0.55195c0.32433,-0.22322 0.77374,-0.35156 1.39101,-0.22811z" fill="#ffffff" stroke="none" stroke-width="0.5" stroke-linecap="butt"></path><path d="M229.96351,156.05821c1.11109,1.48145 -0.37036,2.59253 -0.37036,2.59253l-0.65672,0.46927c-1.99312,1.99221 -4.3935,4.89413 -7.06263,5.97872c-6.19219,2.51619 -10.84506,-3.41191 -13.80796,-8.40271c-2.95158,3.9737 -7.25245,6.83018 -12.62153,7.63913l-2.75833,-1.51646c0,0 -1.58792,-0.95275 -0.63517,-2.54066c0.95275,-1.58792 2.54067,-0.63517 2.54067,-0.63517l1.51692,1.0487c4.57325,-1.1563 8.07358,-4.2053 10.24486,-8.08564c0.05548,-0.23343 0.16792,-0.47148 0.36875,-0.69206c1.4349,-2.83114 2.18773,-6.05251 2.16593,-9.28044c0,0 0,-1.85181 1.85181,-1.85181c1.85181,0 1.85181,1.85181 1.85181,1.85181c-0.02059,3.68095 -0.83388,7.2627 -2.34412,10.42844c1.73831,3.2947 3.62121,6.99286 7.29241,8.34121c0.5623,0.20652 2.34761,0.5472 3.0146,0.23502c2.154,-1.0082 4.11864,-3.49165 5.76313,-5.13693l1.05339,-0.81331c0,0 1.48145,-1.11109 2.59253,0.37036z" fill="#000000" stroke="none" stroke-width="0.5" stroke-linecap="butt"></path><path d="M233.69357,143.87404c0.46949,1.7913 -1.32181,2.26081 -1.32181,2.26081l-0.40241,0.02874c-1.05861,0.63517 -2.11722,1.27033 -3.17583,1.9055c0,0 -1.58792,0.95275 -2.54067,-0.63517c-0.95275,-1.58792 0.63517,-2.54066 0.63517,-2.54066c1.05861,-0.63517 2.11722,-1.27033 3.17583,-1.9055l1.36891,-0.43552c0,0 1.79131,-0.4695 2.2608,1.3218z" fill="#000000" stroke="none" stroke-width="0.5" stroke-linecap="butt"></path><path d="M172.90375,158.23811c2.2619,3.51852 3.44436,7.70472 5.86896,11.11545c4.58709,6.45276 11.36433,9.00334 18.32375,11.89762" fill="#ffffff" stroke="none" stroke-width="0.5" stroke-linecap="round"></path><path d="M192.44519,140.2705l1.36892,0.43552c1.05861,0.63517 2.11722,1.27033 3.17583,1.9055c0,0 1.58792,0.95275 0.63517,2.54066c-0.95275,1.58792 -2.54066,0.63517 -2.54066,0.63517c-1.05861,-0.63517 -2.11722,-1.27033 -3.17583,-1.9055l-0.40241,-0.02874c0,0 -1.79131,-0.46949 -1.32182,-2.2608c0.46949,-1.7913 2.26081,-1.32181 2.26081,-1.32181z" fill="#000000" stroke="none" stroke-width="0.5" stroke-linecap="butt"></path><path d="M173.97256,159.44681c0.86076,7.70365 2.9243,15.8603 7.98807,21.26137c7.99245,8.52482 45.56712,10.77442 54.86666,5.08558c0.19309,-0.11812 12.5521,-13.6157 12.9918,-14.31874c0.94817,-1.51606 2.19518,-12.80151 1.74561,-14.76014c-0.23895,-1.04099 -0.40734,-0.75418 -1.11952,-0.67125c-5.64158,0.65693 -11.36349,0.69439 -16.97255,1.5142c-15.63979,2.28589 -31.49141,2.10206 -47.23893,2.88724c-4.29005,0.21391 -9.10937,-1.36192 -13.26636,-0.30361" fill="#ffffff" stroke="#000000" stroke-width="2.5" stroke-linecap="round"></path><path d="M174.40009,137.93065c0,-29.39042 41.3238,-34.8903 61.11013,-22.2483c2.84605,1.81842 18.29126,16.55031 18.15666,19.15767c-0.04791,0.9282 -0.38029,17.34352 -1.2857,20.92802c-1.66892,6.60725 -6.51248,2.50052 -8.23999,2.59638c-2.98654,0.16572 -6.18852,-21.71848 -9.20805,-21.71771c-12.83058,0.00325 -25.69005,-0.25519 -38.51767,0.00136c-7.65872,0.15318 -15.2593,1.68853 -22.86306,1.71008z" fill="#ffffff" stroke="#000000" stroke-width="2.5" stroke-linecap="round"></path><path d="M245.46481,163.90169c-3.94887,-0.36317 -3.1591,-2.17902 -3.1591,-2.17902l0.4032,-0.87329c0.50523,-2.55544 0.96195,-5.1114 1.38991,-7.66984c0,0 0.30887,-1.84635 4.32408,-1.70433c4.01521,0.14202 3.70635,1.98838 3.70635,1.98838c-0.43086,2.57553 -0.89071,5.14856 -1.39926,7.72108l-0.52653,1.26433c0,0 -0.78977,1.81585 -4.73864,1.45268z" fill="#ffffff" stroke="none" stroke-width="0.5" stroke-linecap="butt"></path><path d="M216.95922,250.78906c2.01672,-8.64208 8.91646,-15.64787 15.41099,-15.64787c6.49453,0 10.12451,7.00579 8.10779,15.64787c-2.01672,8.64208 -8.91646,15.64788 -15.41099,15.64788c-6.49453,0 -10.1245,-7.0058 -8.10779,-15.64788z" fill="#000000" stroke="#ffffff" stroke-width="0.5" stroke-linecap="butt"></path><path d="M263.11527,209.91721c2.01672,-8.64208 8.91645,-15.64787 15.41098,-15.64787c6.49453,0 10.1245,7.00579 8.10778,15.64787c-2.01672,8.64208 -8.91645,15.64788 -15.41098,15.64788c-6.49453,0 -10.1245,-7.0058 -8.10778,-15.64787z" fill="#000000" stroke="#ffffff" stroke-width="0.5" stroke-linecap="butt"></path><path d="M319.31251,158.21949c0.00585,1.24999 -1.24414,1.25583 -1.24414,1.25583l-1.49491,0.00699c-1.62223,0.00936 -3.24444,0.03275 -4.86622,0.0721c-13.42311,2.6786 -22.28531,15.90072 -27.11811,27.71423c0,0 -0.47329,1.15694 -1.63022,0.68365c-1.15693,-0.47329 -0.68365,-1.63022 -0.68365,-1.63022c5.22611,-12.77495 14.74503,-26.36503 29.15311,-29.25205c1.71024,-0.0477 3.4211,-0.07771 5.13199,-0.08767l1.49631,-0.007c0,0 1.24998,-0.00584 1.25583,1.24414z" fill="#000000" stroke="none" stroke-width="0.5" stroke-linecap="butt"></path><path d="M302.45297,92.1716c1.12187,0.55127 0.57062,1.67315 0.57062,1.67315l-0.53139,1.06341c-3.17903,13.71796 -2.87816,28.55506 -8.74075,41.5208c-5.92735,13.10897 -17.04167,25.55883 -30.6332,31.03739c0,0 -1.1606,0.46424 -1.62484,-0.69636c-0.46424,-1.1606 0.69636,-1.62483 0.69636,-1.62483c12.99063,-5.15045 23.64707,-17.28014 29.28372,-29.74619c5.82451,-12.88152 5.41731,-27.71456 8.6651,-41.33371l0.64125,-1.32303c0,0 0.55127,-1.12188 1.67314,-0.57062z" fill="#000000" stroke="none" stroke-width="0.5" stroke-linecap="butt"></path><path d="M202.36942,188.00045c-0.18238,0.04491 -0.31848,0.04491 -0.31848,0.04491h-0.28859c-0.69842,0 -3.85845,0.0062 -4.03881,-0.03344c-0.67511,-0.14835 -2.88566,-1.12759 -4.07584,-2.3561c-0.05849,0.08257 -0.11553,0.15665 -0.17103,0.22151c0,0 -0.81349,0.94907 -1.76256,0.13558c-0.29042,-0.24893 -0.4158,-0.51056 -0.44994,-0.7538c-0.2908,-0.16576 -0.56374,-0.47692 -0.56374,-1.06103c0,-1.25 1.25,-1.25 1.25,-1.25c0.17101,0 0.34211,0.0001 0.51329,0.00032c1.93042,-3.41386 3.34034,-9.46805 6.52969,-10.59018c6.48988,-2.28338 14.89733,-2.13658 21.71253,-3.258c1.8575,0.0834 2.79749,-0.32569 3.827,1.8586c1.00367,2.12947 0.26875,5.00742 1.17845,7.26795c1.20317,2.9898 3.49271,5.66673 5.08849,8.45935l0.82109,1.09076c0,0 0.75,1 -0.25,1.75c-1,0.75 -1.75,-0.25 -1.75,-0.25l-0.72728,-0.97293l-1.62905,0.54302l-0.17285,-0.51856c-6.08949,1.78294 -17.11132,1.57063 -24.72235,-0.32796z" fill="#ff0000" stroke="none" stroke-width="0.5" stroke-linecap="butt"></path><path d="M196.00876,110.87911c0.30186,0.30186 0.39754,0.60372 0.39266,0.87038c0.99679,-0.43077 1.54767,0.5608 1.54767,0.5608c8.90302,16.0472 -5.15455,16.97859 -15.25154,9.28276c-0.39649,-0.78701 -1.48383,-1.5304 -1.18947,-2.36103c0.48307,-1.36316 2.47749,-1.5057 3.61652,-2.39688c3.34923,-2.62043 4.70445,-5.65377 9.42311,-5.74497l-0.30671,-0.21106c0,0 0.88388,-0.88389 1.76776,0z" fill="#ff0000" stroke="none" stroke-width="0.5" stroke-linecap="butt"></path><path d="M224.73303,110.72293c1.04006,-0.69338 1.73344,0.34669 1.73344,0.34669l0.06614,0.30351c0.20552,0.0423 0.42447,0.15278 0.64343,0.37174c0.05256,0.05256 0.09887,0.10511 0.13949,0.15749c2.7275,1.47256 5.22768,3.39462 7.77065,5.18323c1.24779,0.87764 2.34219,1.01982 2.81412,2.76989c0.16154,0.59906 -0.1758,1.22841 -0.2637,1.84261c0.01393,11.49082 -24.93624,4.45648 -13.08173,-9.03622l-0.16853,-0.2055c0,0 -0.69337,-1.04006 0.34669,-1.73344z" fill="#ff0000" stroke="none" stroke-width="0.5" stroke-linecap="butt"></path><path d="M212.64745,199.34867h-0.14854c-0.08602,-0.00171 -0.17141,-0.00822 -0.25628,-0.01878c-1.34279,0.95757 -2.75016,1.79718 -4.24334,2.48782c-2.72137,1.25871 -5.48251,1.90953 -7.97759,3.53726c0.14453,1.99406 -0.71281,4.13549 -3.04029,5.74589c-2.51053,-0.55758 -5.01306,-1.13852 -7.50564,-1.69644c-1.09469,-1.73927 -1.51159,-3.98638 -0.84,-5.79705c-1.84529,-1.19848 -3.65361,-2.52253 -5.4124,-3.93276l-0.01495,-0.01005c0,0 -0.00177,-0.00203 -0.00504,-0.00598c-2.49135,-1.99898 -4.88317,-4.17069 -7.1397,-6.4031c-0.09851,-0.04916 -0.19953,-0.11753 -0.28997,-0.21263c-2.29973,3.05811 -3.60013,6.90794 -3.7925,10.86445c-0.70487,-0.2495 -1.41212,-0.49505 -2.11981,-0.73331c0.56292,-7.40348 4.55283,-14.38058 11.35668,-17.46458c-0.03074,-0.0792 -0.05728,-0.16735 -0.07864,-0.26541c-0.26413,-1.21268 0.79239,-1.51585 0.79239,-1.51585l0.59418,-0.1705c5.17195,-1.44625 11.6822,-0.0946 16.98666,-0.00109c4.16967,1.06794 10.39461,4.35593 15.36812,8.70795c0.27112,0.08972 0.49878,0.2971 0.63834,0.57085c0.0362,0.0331 0.07233,0.06624 0.10837,0.09945l0.19399,-0.26931c0,0 0.69719,-0.96027 1.53382,-0.16004c0.83662,0.80023 0.13944,1.7605 0.13944,1.7605l-0.21378,0.2925c5.58643,5.86637 8.32644,13.09802 1.70258,19.41643c-1.55391,-0.04069 -2.82556,-0.06584 -3.64392,-0.10136c7.95432,-5.39809 5.60724,-12.06521 0.33986,-17.54977c-0.63561,0.58336 -1.28314,1.14312 -1.94544,1.67518c-0.05661,1.14975 -1.08662,1.14975 -1.08662,1.14975zM182.44618,190.91468c3.29898,0.97169 7.03893,5.34896 9.06644,9.34463c1.99916,-0.91429 3.91327,-0.70374 5.4194,0.16379c3.54152,-4.5252 10.007,-5.26438 14.94237,-7.30823c-4.44365,-3.47923 -9.55825,-6.073 -12.61674,-6.87552c-3.64804,-0.04155 -7.39452,0.0511 -11.03906,-0.19194c-1.60589,-0.10709 -3.13239,-0.33379 -4.70607,0.01693c0.00467,0.0148 0.00924,0.02985 0.01369,0.04518c0.34438,1.18586 -0.68877,1.58114 -0.68877,1.58114c-1.93452,0.73082 -3.62903,1.80787 -5.06895,3.13922c1.55774,-0.10809 3.31172,-0.31753 4.67768,0.0848z" fill="#000000" stroke="#ffffff" stroke-width="0.5" stroke-linecap="butt"></path></g></g></svg>
</g>
</g>
</svg>