<svg width="400" height="400" viewBox="0 0 400 400" fill="none" xmlns="http://www.w3.org/2000/svg">
<mask id="path-1-outside-1_597_7" maskUnits="userSpaceOnUse" x="113.975" y="197.833" width="169" height="199" fill="black">
<rect fill="white" x="113.975" y="197.833" width="169" height="199"/>
<path fill-rule="evenodd" clip-rule="evenodd" d="M230.4 208.363C220.466 211.857 209.384 213.158 200.213 211.907C199.368 211.792 199.196 212.698 198.023 223.4C195.699 244.605 193.147 258.55 191.313 260.072C190.688 260.591 183.187 253.209 163 232.209C157.72 226.716 151.87 220.64 150 218.707L146.6 215.192L143.572 216.773C137.704 219.838 134.381 220.711 125.903 221.412C121.561 221.771 121.433 221.458 129.752 230.801C130.439 231.572 131.989 233.372 133.198 234.801C134.406 236.231 135.496 237.49 135.62 237.6C135.795 237.755 144.938 248.343 151.854 256.4C152.936 257.66 158.318 263.895 160.83 266.8C166.701 273.586 170 277.776 170 278.444C170 278.86 170.18 279.2 170.4 279.2C170.62 279.2 170.8 279.436 170.8 279.725C170.8 280.013 171.16 280.636 171.6 281.108C172.04 281.58 172.4 282.244 172.4 282.583C172.4 282.922 172.58 283.2 172.8 283.2C173.02 283.2 173.2 283.661 173.2 284.224C173.2 284.804 173.373 285.14 173.6 285C173.848 284.847 174 285.596 174 286.976C174 288.199 174.18 289.2 174.4 289.2C174.662 289.2 174.8 297.6 174.8 313.6C174.8 329.6 174.662 338 174.4 338C174.165 338 174 339.4 174 341.4C174 343.27 173.847 344.8 173.661 344.8C173.474 344.8 173.284 346.105 173.238 347.7C173.192 349.295 172.985 350.771 172.777 350.98C172.57 351.189 172.4 352.663 172.4 354.256C172.4 355.849 172.22 357.264 172 357.4C171.78 357.536 171.6 359.246 171.6 361.2C171.6 363.154 171.42 364.864 171.2 365C170.961 365.148 170.8 367.796 170.8 371.6C170.8 375.404 170.961 378.052 171.2 378.2C171.42 378.336 171.6 378.966 171.6 379.6C171.6 380.234 171.78 380.864 172 381C172.22 381.136 172.4 381.588 172.4 382.005C172.4 382.899 174.181 384.8 175.018 384.8C175.338 384.8 175.6 384.991 175.6 385.224C175.6 385.457 175.748 385.556 175.929 385.444C176.109 385.332 176.76 385.502 177.374 385.82C177.989 386.139 179.011 386.4 179.646 386.4C180.281 386.4 180.8 386.58 180.8 386.8C180.8 387.022 181.867 387.2 183.2 387.2C184.533 387.2 185.6 387.378 185.6 387.6C185.6 387.84 187.192 388 189.576 388C191.763 388 193.66 388.174 193.791 388.386C194.101 388.887 210.309 388.872 210.618 388.37C210.744 388.167 212.446 388 214.4 388C216.354 388 218.064 387.82 218.2 387.6C218.336 387.38 219.247 387.2 220.224 387.2C221.201 387.2 222 387.02 222 386.8C222 386.58 222.619 386.4 223.376 386.4C224.133 386.4 224.864 386.22 225 386C225.136 385.78 225.597 385.6 226.024 385.6C226.451 385.6 226.8 385.463 226.8 385.295C226.8 385.127 227.205 384.812 227.7 384.595C228.195 384.378 228.778 383.795 228.995 383.3C229.212 382.805 229.527 382.4 229.695 382.4C229.863 382.4 230 382.04 230 381.6C230 381.16 230.18 380.8 230.4 380.8C230.62 380.8 230.8 379.9 230.8 378.8C230.8 377.7 230.98 376.8 231.2 376.8C231.452 376.8 231.6 374.075 231.6 369.424C231.6 364.937 231.443 361.95 231.2 361.8C230.973 361.66 230.8 359.663 230.8 357.176C230.8 354.525 230.642 352.8 230.4 352.8C230.159 352.8 230 351.144 230 348.633C230 346.288 229.83 344.408 229.61 344.333C229.382 344.255 229.203 341.52 229.179 337.704C229.155 334.131 228.97 331.105 228.768 330.98C227.455 330.169 228.403 326.345 230.4 324.4C231.5 323.329 232.4 322.332 232.4 322.186C232.4 322.04 232.902 321.444 233.515 320.86C234.129 320.277 235.071 319.17 235.609 318.4C236.147 317.63 237.175 316.409 237.893 315.687C238.612 314.964 239.2 314.227 239.2 314.048C239.2 313.869 239.571 313.29 240.024 312.761C240.478 312.233 241.198 311.394 241.624 310.897C242.051 310.4 242.4 309.765 242.4 309.485C242.4 309.206 242.788 308.712 243.262 308.388C243.737 308.065 244.412 307.465 244.762 307.055C245.113 306.646 245.625 306.074 245.9 305.784C246.175 305.494 246.4 305.137 246.4 304.989C246.4 304.842 246.94 304.217 247.6 303.6C248.26 302.983 248.8 302.281 248.8 302.04C248.8 301.798 248.98 301.6 249.2 301.6C249.42 301.6 249.6 301.402 249.6 301.16C249.6 300.919 250.14 300.217 250.8 299.6C251.46 298.983 252 298.275 252 298.026C252 297.777 252.63 296.943 253.4 296.173C254.17 295.403 254.8 294.618 254.8 294.429C254.8 294.24 255.34 293.507 256 292.8C256.66 292.093 257.2 291.381 257.2 291.217C257.2 291.053 257.74 290.354 258.4 289.663C259.06 288.972 259.6 288.208 259.6 287.964C259.6 287.72 260.14 287.017 260.8 286.4C261.46 285.783 262 285.12 262 284.925C262 284.73 262.715 283.768 263.589 282.786C264.462 281.803 265.182 280.863 265.189 280.696C265.195 280.529 265.74 279.828 266.4 279.137C267.06 278.446 267.6 277.704 267.6 277.488C267.6 277.271 267.915 276.803 268.3 276.447C269.831 275.031 271.586 272.412 271.794 271.234C271.915 270.55 272.64 269.168 273.407 268.164C275.032 266.035 275.161 265.406 273.9 265.758C271.549 266.416 261.138 266.876 253.763 266.649L245.727 266.402L244.247 268.001C243.434 268.88 242.614 269.6 242.426 269.6C241.905 269.6 239.6 271.86 239.6 272.371C239.6 272.619 238.835 273.611 237.9 274.577C235.476 277.081 233.163 279.766 232.673 280.645C232.441 281.06 231.565 282.061 230.726 282.869C229.887 283.676 229.2 284.449 229.2 284.585C229.2 284.722 228.84 285.22 228.4 285.692L227.6 286.551V285.652C227.6 285.154 227.421 284.863 227.2 285C226.94 285.161 226.8 283.071 226.8 279.024C226.8 275.141 226.95 272.8 227.2 272.8C227.694 272.8 227.743 266.317 227.253 265.78C226.467 264.919 227.548 254.04 229.597 242.2C230.282 238.24 231.004 234.01 231.202 232.8C231.399 231.59 231.758 229.52 232 228.2C232.242 226.88 232.601 224.81 232.799 223.6C232.996 222.39 233.538 219.24 234.002 216.6C235.576 207.651 235.659 206.721 234.876 206.843C234.724 206.867 232.71 207.551 230.4 208.363Z"/>
</mask>
<path fill-rule="evenodd" clip-rule="evenodd" d="M230.4 208.363C220.466 211.857 209.384 213.158 200.213 211.907C199.368 211.792 199.196 212.698 198.023 223.4C195.699 244.605 193.147 258.55 191.313 260.072C190.688 260.591 183.187 253.209 163 232.209C157.72 226.716 151.87 220.64 150 218.707L146.6 215.192L143.572 216.773C137.704 219.838 134.381 220.711 125.903 221.412C121.561 221.771 121.433 221.458 129.752 230.801C130.439 231.572 131.989 233.372 133.198 234.801C134.406 236.231 135.496 237.49 135.62 237.6C135.795 237.755 144.938 248.343 151.854 256.4C152.936 257.66 158.318 263.895 160.83 266.8C166.701 273.586 170 277.776 170 278.444C170 278.86 170.18 279.2 170.4 279.2C170.62 279.2 170.8 279.436 170.8 279.725C170.8 280.013 171.16 280.636 171.6 281.108C172.04 281.58 172.4 282.244 172.4 282.583C172.4 282.922 172.58 283.2 172.8 283.2C173.02 283.2 173.2 283.661 173.2 284.224C173.2 284.804 173.373 285.14 173.6 285C173.848 284.847 174 285.596 174 286.976C174 288.199 174.18 289.2 174.4 289.2C174.662 289.2 174.8 297.6 174.8 313.6C174.8 329.6 174.662 338 174.4 338C174.165 338 174 339.4 174 341.4C174 343.27 173.847 344.8 173.661 344.8C173.474 344.8 173.284 346.105 173.238 347.7C173.192 349.295 172.985 350.771 172.777 350.98C172.57 351.189 172.4 352.663 172.4 354.256C172.4 355.849 172.22 357.264 172 357.4C171.78 357.536 171.6 359.246 171.6 361.2C171.6 363.154 171.42 364.864 171.2 365C170.961 365.148 170.8 367.796 170.8 371.6C170.8 375.404 170.961 378.052 171.2 378.2C171.42 378.336 171.6 378.966 171.6 379.6C171.6 380.234 171.78 380.864 172 381C172.22 381.136 172.4 381.588 172.4 382.005C172.4 382.899 174.181 384.8 175.018 384.8C175.338 384.8 175.6 384.991 175.6 385.224C175.6 385.457 175.748 385.556 175.929 385.444C176.109 385.332 176.76 385.502 177.374 385.82C177.989 386.139 179.011 386.4 179.646 386.4C180.281 386.4 180.8 386.58 180.8 386.8C180.8 387.022 181.867 387.2 183.2 387.2C184.533 387.2 185.6 387.378 185.6 387.6C185.6 387.84 187.192 388 189.576 388C191.763 388 193.66 388.174 193.791 388.386C194.101 388.887 210.309 388.872 210.618 388.37C210.744 388.167 212.446 388 214.4 388C216.354 388 218.064 387.82 218.2 387.6C218.336 387.38 219.247 387.2 220.224 387.2C221.201 387.2 222 387.02 222 386.8C222 386.58 222.619 386.4 223.376 386.4C224.133 386.4 224.864 386.22 225 386C225.136 385.78 225.597 385.6 226.024 385.6C226.451 385.6 226.8 385.463 226.8 385.295C226.8 385.127 227.205 384.812 227.7 384.595C228.195 384.378 228.778 383.795 228.995 383.3C229.212 382.805 229.527 382.4 229.695 382.4C229.863 382.4 230 382.04 230 381.6C230 381.16 230.18 380.8 230.4 380.8C230.62 380.8 230.8 379.9 230.8 378.8C230.8 377.7 230.98 376.8 231.2 376.8C231.452 376.8 231.6 374.075 231.6 369.424C231.6 364.937 231.443 361.95 231.2 361.8C230.973 361.66 230.8 359.663 230.8 357.176C230.8 354.525 230.642 352.8 230.4 352.8C230.159 352.8 230 351.144 230 348.633C230 346.288 229.83 344.408 229.61 344.333C229.382 344.255 229.203 341.52 229.179 337.704C229.155 334.131 228.97 331.105 228.768 330.98C227.455 330.169 228.403 326.345 230.4 324.4C231.5 323.329 232.4 322.332 232.4 322.186C232.4 322.04 232.902 321.444 233.515 320.86C234.129 320.277 235.071 319.17 235.609 318.4C236.147 317.63 237.175 316.409 237.893 315.687C238.612 314.964 239.2 314.227 239.2 314.048C239.2 313.869 239.571 313.29 240.024 312.761C240.478 312.233 241.198 311.394 241.624 310.897C242.051 310.4 242.4 309.765 242.4 309.485C242.4 309.206 242.788 308.712 243.262 308.388C243.737 308.065 244.412 307.465 244.762 307.055C245.113 306.646 245.625 306.074 245.9 305.784C246.175 305.494 246.4 305.137 246.4 304.989C246.4 304.842 246.94 304.217 247.6 303.6C248.26 302.983 248.8 302.281 248.8 302.04C248.8 301.798 248.98 301.6 249.2 301.6C249.42 301.6 249.6 301.402 249.6 301.16C249.6 300.919 250.14 300.217 250.8 299.6C251.46 298.983 252 298.275 252 298.026C252 297.777 252.63 296.943 253.4 296.173C254.17 295.403 254.8 294.618 254.8 294.429C254.8 294.24 255.34 293.507 256 292.8C256.66 292.093 257.2 291.381 257.2 291.217C257.2 291.053 257.74 290.354 258.4 289.663C259.06 288.972 259.6 288.208 259.6 287.964C259.6 287.72 260.14 287.017 260.8 286.4C261.46 285.783 262 285.12 262 284.925C262 284.73 262.715 283.768 263.589 282.786C264.462 281.803 265.182 280.863 265.189 280.696C265.195 280.529 265.74 279.828 266.4 279.137C267.06 278.446 267.6 277.704 267.6 277.488C267.6 277.271 267.915 276.803 268.3 276.447C269.831 275.031 271.586 272.412 271.794 271.234C271.915 270.55 272.64 269.168 273.407 268.164C275.032 266.035 275.161 265.406 273.9 265.758C271.549 266.416 261.138 266.876 253.763 266.649L245.727 266.402L244.247 268.001C243.434 268.88 242.614 269.6 242.426 269.6C241.905 269.6 239.6 271.86 239.6 272.371C239.6 272.619 238.835 273.611 237.9 274.577C235.476 277.081 233.163 279.766 232.673 280.645C232.441 281.06 231.565 282.061 230.726 282.869C229.887 283.676 229.2 284.449 229.2 284.585C229.2 284.722 228.84 285.22 228.4 285.692L227.6 286.551V285.652C227.6 285.154 227.421 284.863 227.2 285C226.94 285.161 226.8 283.071 226.8 279.024C226.8 275.141 226.95 272.8 227.2 272.8C227.694 272.8 227.743 266.317 227.253 265.78C226.467 264.919 227.548 254.04 229.597 242.2C230.282 238.24 231.004 234.01 231.202 232.8C231.399 231.59 231.758 229.52 232 228.2C232.242 226.88 232.601 224.81 232.799 223.6C232.996 222.39 233.538 219.24 234.002 216.6C235.576 207.651 235.659 206.721 234.876 206.843C234.724 206.867 232.71 207.551 230.4 208.363Z" fill="#E0803B"/>
<path fill-rule="evenodd" clip-rule="evenodd" d="M230.4 208.363C220.466 211.857 209.384 213.158 200.213 211.907C199.368 211.792 199.196 212.698 198.023 223.4C195.699 244.605 193.147 258.55 191.313 260.072C190.688 260.591 183.187 253.209 163 232.209C157.72 226.716 151.87 220.64 150 218.707L146.6 215.192L143.572 216.773C137.704 219.838 134.381 220.711 125.903 221.412C121.561 221.771 121.433 221.458 129.752 230.801C130.439 231.572 131.989 233.372 133.198 234.801C134.406 236.231 135.496 237.49 135.62 237.6C135.795 237.755 144.938 248.343 151.854 256.4C152.936 257.66 158.318 263.895 160.83 266.8C166.701 273.586 170 277.776 170 278.444C170 278.86 170.18 279.2 170.4 279.2C170.62 279.2 170.8 279.436 170.8 279.725C170.8 280.013 171.16 280.636 171.6 281.108C172.04 281.58 172.4 282.244 172.4 282.583C172.4 282.922 172.58 283.2 172.8 283.2C173.02 283.2 173.2 283.661 173.2 284.224C173.2 284.804 173.373 285.14 173.6 285C173.848 284.847 174 285.596 174 286.976C174 288.199 174.18 289.2 174.4 289.2C174.662 289.2 174.8 297.6 174.8 313.6C174.8 329.6 174.662 338 174.4 338C174.165 338 174 339.4 174 341.4C174 343.27 173.847 344.8 173.661 344.8C173.474 344.8 173.284 346.105 173.238 347.7C173.192 349.295 172.985 350.771 172.777 350.98C172.57 351.189 172.4 352.663 172.4 354.256C172.4 355.849 172.22 357.264 172 357.4C171.78 357.536 171.6 359.246 171.6 361.2C171.6 363.154 171.42 364.864 171.2 365C170.961 365.148 170.8 367.796 170.8 371.6C170.8 375.404 170.961 378.052 171.2 378.2C171.42 378.336 171.6 378.966 171.6 379.6C171.6 380.234 171.78 380.864 172 381C172.22 381.136 172.4 381.588 172.4 382.005C172.4 382.899 174.181 384.8 175.018 384.8C175.338 384.8 175.6 384.991 175.6 385.224C175.6 385.457 175.748 385.556 175.929 385.444C176.109 385.332 176.76 385.502 177.374 385.82C177.989 386.139 179.011 386.4 179.646 386.4C180.281 386.4 180.8 386.58 180.8 386.8C180.8 387.022 181.867 387.2 183.2 387.2C184.533 387.2 185.6 387.378 185.6 387.6C185.6 387.84 187.192 388 189.576 388C191.763 388 193.66 388.174 193.791 388.386C194.101 388.887 210.309 388.872 210.618 388.37C210.744 388.167 212.446 388 214.4 388C216.354 388 218.064 387.82 218.2 387.6C218.336 387.38 219.247 387.2 220.224 387.2C221.201 387.2 222 387.02 222 386.8C222 386.58 222.619 386.4 223.376 386.4C224.133 386.4 224.864 386.22 225 386C225.136 385.78 225.597 385.6 226.024 385.6C226.451 385.6 226.8 385.463 226.8 385.295C226.8 385.127 227.205 384.812 227.7 384.595C228.195 384.378 228.778 383.795 228.995 383.3C229.212 382.805 229.527 382.4 229.695 382.4C229.863 382.4 230 382.04 230 381.6C230 381.16 230.18 380.8 230.4 380.8C230.62 380.8 230.8 379.9 230.8 378.8C230.8 377.7 230.98 376.8 231.2 376.8C231.452 376.8 231.6 374.075 231.6 369.424C231.6 364.937 231.443 361.95 231.2 361.8C230.973 361.66 230.8 359.663 230.8 357.176C230.8 354.525 230.642 352.8 230.4 352.8C230.159 352.8 230 351.144 230 348.633C230 346.288 229.83 344.408 229.61 344.333C229.382 344.255 229.203 341.52 229.179 337.704C229.155 334.131 228.97 331.105 228.768 330.98C227.455 330.169 228.403 326.345 230.4 324.4C231.5 323.329 232.4 322.332 232.4 322.186C232.4 322.04 232.902 321.444 233.515 320.86C234.129 320.277 235.071 319.17 235.609 318.4C236.147 317.63 237.175 316.409 237.893 315.687C238.612 314.964 239.2 314.227 239.2 314.048C239.2 313.869 239.571 313.29 240.024 312.761C240.478 312.233 241.198 311.394 241.624 310.897C242.051 310.4 242.4 309.765 242.4 309.485C242.4 309.206 242.788 308.712 243.262 308.388C243.737 308.065 244.412 307.465 244.762 307.055C245.113 306.646 245.625 306.074 245.9 305.784C246.175 305.494 246.4 305.137 246.4 304.989C246.4 304.842 246.94 304.217 247.6 303.6C248.26 302.983 248.8 302.281 248.8 302.04C248.8 301.798 248.98 301.6 249.2 301.6C249.42 301.6 249.6 301.402 249.6 301.16C249.6 300.919 250.14 300.217 250.8 299.6C251.46 298.983 252 298.275 252 298.026C252 297.777 252.63 296.943 253.4 296.173C254.17 295.403 254.8 294.618 254.8 294.429C254.8 294.24 255.34 293.507 256 292.8C256.66 292.093 257.2 291.381 257.2 291.217C257.2 291.053 257.74 290.354 258.4 289.663C259.06 288.972 259.6 288.208 259.6 287.964C259.6 287.72 260.14 287.017 260.8 286.4C261.46 285.783 262 285.12 262 284.925C262 284.73 262.715 283.768 263.589 282.786C264.462 281.803 265.182 280.863 265.189 280.696C265.195 280.529 265.74 279.828 266.4 279.137C267.06 278.446 267.6 277.704 267.6 277.488C267.6 277.271 267.915 276.803 268.3 276.447C269.831 275.031 271.586 272.412 271.794 271.234C271.915 270.55 272.64 269.168 273.407 268.164C275.032 266.035 275.161 265.406 273.9 265.758C271.549 266.416 261.138 266.876 253.763 266.649L245.727 266.402L244.247 268.001C243.434 268.88 242.614 269.6 242.426 269.6C241.905 269.6 239.6 271.86 239.6 272.371C239.6 272.619 238.835 273.611 237.9 274.577C235.476 277.081 233.163 279.766 232.673 280.645C232.441 281.06 231.565 282.061 230.726 282.869C229.887 283.676 229.2 284.449 229.2 284.585C229.2 284.722 228.84 285.22 228.4 285.692L227.6 286.551V285.652C227.6 285.154 227.421 284.863 227.2 285C226.94 285.161 226.8 283.071 226.8 279.024C226.8 275.141 226.95 272.8 227.2 272.8C227.694 272.8 227.743 266.317 227.253 265.78C226.467 264.919 227.548 254.04 229.597 242.2C230.282 238.24 231.004 234.01 231.202 232.8C231.399 231.59 231.758 229.52 232 228.2C232.242 226.88 232.601 224.81 232.799 223.6C232.996 222.39 233.538 219.24 234.002 216.6C235.576 207.651 235.659 206.721 234.876 206.843C234.724 206.867 232.71 207.551 230.4 208.363Z" stroke="black" stroke-width="16" mask="url(#path-1-outside-1_597_7)"/>
<mask id="path-2-outside-2_597_7" maskUnits="userSpaceOnUse" x="20.3926" y="0.893005" width="356" height="291" fill="black">
<rect fill="white" x="20.3926" y="0.893005" width="356" height="291"/>
<path fill-rule="evenodd" clip-rule="evenodd" d="M198.1 9.07601C198.485 9.17601 199.115 9.17601 199.5 9.07601C199.885 8.97501 199.57 8.89301 198.8 8.89301C198.03 8.89301 197.715 8.97501 198.1 9.07601ZM110.903 54.195C110.63 54.505 110.102 55.398 109.729 56.18C109.357 56.961 108.905 57.6 108.726 57.6C108.547 57.6 108.4 57.836 108.4 58.125C108.4 58.413 108.075 58.998 107.678 59.425C107.28 59.851 106.697 60.785 106.38 61.5C106.064 62.215 105.669 62.8 105.502 62.8C105.336 62.8 105.2 63.16 105.2 63.6C105.2 64.04 105.02 64.4 104.8 64.4C104.58 64.4 104.4 64.634 104.4 64.92C104.4 65.656 103.459 67.593 103.1 67.597C102.935 67.599 102.8 67.96 102.8 68.4C102.8 68.84 102.62 69.2 102.4 69.2C102.18 69.2 102 69.56 102 70C102 70.44 101.82 70.8 101.6 70.8C101.38 70.8 101.2 71.261 101.2 71.824C101.2 72.404 101.027 72.74 100.8 72.6C100.567 72.456 100.4 72.863 100.4 73.576C100.4 74.249 100.22 74.8 99.9998 74.8C99.7798 74.8 99.5998 75.029 99.5998 75.309C99.5998 75.914 96.0878 76.8 93.6878 76.8C92.7598 76.8 91.9998 76.98 91.9998 77.2C91.9998 77.42 91.2008 77.6 90.2238 77.6C89.2468 77.6 88.3478 77.76 88.2268 77.956C88.1058 78.151 87.3308 78.427 86.5038 78.567C82.8508 79.189 82.3998 79.307 82.3998 79.644C82.3998 79.84 81.9608 80 81.4238 80C80.8868 80 80.3358 80.18 80.1998 80.4C80.0638 80.62 79.5028 80.8 78.9528 80.8C78.3878 80.8 78.0598 80.974 78.1998 81.2C78.3398 81.427 78.0038 81.6 77.4238 81.6C76.8608 81.6 76.3998 81.747 76.3998 81.928C76.3998 82.108 75.4998 82.5 74.3998 82.8C73.2998 83.1 72.3998 83.492 72.3998 83.672C72.3998 83.853 72.0398 84 71.5998 84C71.1598 84 70.7998 84.18 70.7998 84.4C70.7998 84.62 70.5168 84.8 70.1708 84.8C69.8258 84.8 69.2708 85.072 68.9388 85.404C68.6068 85.736 68.1698 85.905 67.9678 85.78C67.7648 85.655 67.5998 85.743 67.5998 85.976C67.5998 86.209 67.3638 86.4 67.0748 86.4C66.7868 86.4 66.1638 86.76 65.6918 87.2C65.2198 87.64 64.5558 88 64.2168 88C63.8778 88 63.5998 88.15 63.5998 88.332C63.5998 88.515 63.1048 88.919 62.4998 89.23C61.8948 89.54 61.1088 90.111 60.7528 90.497C60.3968 90.884 59.9788 91.2 59.8248 91.2C59.6698 91.2 59.3078 91.425 59.0198 91.7C58.7328 91.975 58.0878 92.47 57.5858 92.8C55.1448 94.406 47.9998 101.276 47.9998 102.017C47.9998 102.254 47.8198 102.336 47.5998 102.2C47.3798 102.064 47.1998 102.189 47.1998 102.479C47.1998 102.768 46.4798 103.769 45.5998 104.703C44.7188 105.638 43.9538 106.62 43.8998 106.886C43.8448 107.153 43.3948 107.825 42.8998 108.381C42.4048 108.937 41.9998 109.619 41.9998 109.896C41.9998 110.173 41.8198 110.4 41.5998 110.4C41.3798 110.4 41.1998 110.771 41.1998 111.224C41.1998 111.677 41.0198 111.936 40.7998 111.8C40.5798 111.664 40.3998 111.833 40.3998 112.176C40.3998 112.519 40.2198 112.8 39.9998 112.8C39.7798 112.8 39.5998 113.16 39.5998 113.6C39.5998 114.04 39.4198 114.4 39.1998 114.4C38.9798 114.4 38.7998 114.76 38.7998 115.2C38.7998 115.64 38.6198 116 38.3998 116C38.1798 116 37.9998 116.27 37.9998 116.6C37.9998 116.93 37.8648 117.201 37.6998 117.203C37.2938 117.207 36.3998 119.186 36.3998 120.08C36.3998 120.476 36.2198 120.8 35.9998 120.8C35.7798 120.8 35.5998 121.16 35.5998 121.6C35.5998 122.04 35.4198 122.4 35.1998 122.4C34.9798 122.4 34.7998 122.76 34.7998 123.2C34.7998 123.64 34.6198 124 34.3998 124C34.1798 124 33.9998 124.362 33.9998 124.805C33.9998 125.248 33.8198 125.968 33.5998 126.405C33.3798 126.842 33.0198 127.558 32.7998 127.995C32.5798 128.432 32.3998 129.242 32.3998 129.795C32.3998 130.348 32.2198 130.8 31.9998 130.8C31.7798 130.8 31.5998 131.34 31.5998 132C31.5998 132.66 31.4198 133.2 31.1998 133.2C30.9798 133.2 30.7998 133.729 30.7998 134.376C30.7998 135.023 30.6198 135.664 30.3998 135.8C30.1798 135.936 29.9998 136.847 29.9998 137.824C29.9998 138.801 29.8198 139.6 29.5998 139.6C29.3798 139.6 29.1998 140.579 29.1998 141.776C29.1998 142.973 29.0198 144.064 28.7998 144.2C28.2568 144.536 28.2568 164.264 28.7998 164.6C29.0198 164.736 29.1998 165.816 29.1998 167C29.1998 168.184 29.3798 169.264 29.5998 169.4C29.8198 169.536 29.9998 170.357 29.9998 171.224C29.9998 172.091 30.1798 172.8 30.3998 172.8C30.6198 172.8 30.7998 173.419 30.7998 174.176C30.7998 174.933 30.9798 175.664 31.1998 175.8C31.4198 175.936 31.5998 176.476 31.5998 177C31.5998 177.524 31.7798 178.064 31.9998 178.2C32.2198 178.336 32.3998 178.977 32.3998 179.624C32.3998 180.271 32.5798 180.8 32.7998 180.8C33.0198 180.8 33.1998 181.16 33.1998 181.6C33.1998 182.04 33.3798 182.4 33.5998 182.4C33.8198 182.4 33.9998 182.839 33.9998 183.376C33.9998 183.913 34.1798 184.464 34.3998 184.6C34.6198 184.736 34.7998 185.197 34.7998 185.624C34.7998 186.051 34.9798 186.4 35.1998 186.4C35.4198 186.4 35.5998 186.76 35.5998 187.2C35.5998 187.64 35.7798 188 35.9998 188C36.2198 188 36.3998 188.36 36.3998 188.8C36.3998 189.24 36.5458 189.6 36.7248 189.6C36.9038 189.6 37.2978 190.23 37.5998 191C37.9018 191.77 38.2958 192.4 38.4748 192.4C38.6538 192.4 38.7998 192.76 38.7998 193.2C38.7998 193.64 38.9798 194 39.1998 194C39.4198 194 39.5998 194.32 39.5998 194.712C39.5998 195.103 39.9598 195.683 40.3998 196C40.8398 196.317 41.1998 196.897 41.1998 197.288C41.1998 197.68 41.3528 198 41.5388 198C41.7258 198 42.2028 198.72 42.5998 199.6C42.9968 200.48 43.4448 201.2 43.5968 201.2C43.7478 201.2 44.0698 201.636 44.3128 202.168C44.7418 203.111 45.6278 204.2 48.2998 207.072L49.5998 208.469V214.011C49.5998 217.274 49.7638 219.654 49.9998 219.8C50.2198 219.936 50.3998 220.847 50.3998 221.824C50.3998 222.801 50.5798 223.6 50.7998 223.6C51.0198 223.6 51.1998 224.32 51.1998 225.2C51.1998 226.08 51.3798 226.8 51.5998 226.8C51.8198 226.8 51.9998 227.34 51.9998 228C51.9998 228.66 52.1798 229.2 52.3998 229.2C52.6198 229.2 52.7998 229.74 52.7998 230.4C52.7998 231.06 52.9798 231.6 53.1998 231.6C53.4198 231.6 53.5998 231.949 53.5998 232.376C53.5998 232.803 53.7798 233.264 53.9998 233.4C54.2198 233.536 54.3998 234.087 54.3998 234.624C54.3998 235.161 54.5358 235.6 54.7018 235.6C54.8688 235.6 55.2628 236.185 55.5778 236.9C55.8928 237.615 56.3888 238.44 56.6788 238.732C56.9698 239.025 57.1048 239.43 56.9798 239.632C56.8548 239.835 56.9298 240 57.1468 240C57.3648 240 57.8598 240.72 58.2478 241.6C58.6358 242.48 59.0988 243.2 59.2768 243.2C59.4548 243.2 59.5998 243.476 59.5998 243.813C59.5998 244.149 59.8688 244.528 60.1978 244.654C60.5258 244.781 60.7158 245.012 60.6188 245.169C60.5218 245.326 60.7928 245.707 61.2208 246.015C61.6498 246.324 61.9998 246.798 61.9998 247.07C61.9998 247.885 69.6598 255.997 71.5658 257.2C72.0878 257.53 73.1138 258.385 73.8448 259.1C74.5748 259.815 75.2868 260.4 75.4258 260.4C75.5648 260.4 76.1828 260.94 76.7998 261.6C77.4168 262.26 78.1688 262.8 78.4718 262.8C78.7748 262.8 79.2828 263.16 79.5998 263.6C79.9168 264.04 80.4568 264.4 80.7998 264.4C81.1428 264.4 81.6828 264.76 81.9998 265.2C82.3168 265.64 82.8568 266 83.1998 266C83.5428 266 84.0828 266.36 84.3998 266.8C84.7168 267.24 85.2088 267.6 85.4938 267.6C86.0418 267.6 87.6618 268.418 88.0038 268.868C88.1158 269.015 88.4688 269.195 88.7878 269.268C89.1068 269.341 89.7248 269.715 90.1598 270.1C90.5948 270.485 91.1868 270.8 91.4748 270.8C91.7638 270.8 91.9998 270.98 91.9998 271.2C91.9998 271.42 92.3448 271.6 92.7668 271.6C93.1878 271.6 93.5928 271.735 93.6668 271.9C93.8018 272.205 96.3518 273.365 99.5998 274.598C100.59 274.974 101.713 275.444 102.095 275.641C102.477 275.838 103.152 276 103.595 276C104.038 276 104.4 276.18 104.4 276.4C104.4 276.62 104.94 276.8 105.6 276.8C106.26 276.8 106.8 276.98 106.8 277.2C106.8 277.42 107.34 277.6 108 277.6C108.66 277.6 109.2 277.78 109.2 278C109.2 278.22 109.65 278.4 110.2 278.4C110.75 278.4 111.2 278.58 111.2 278.8C111.2 279.02 111.729 279.2 112.376 279.2C113.023 279.2 113.664 279.38 113.8 279.6C113.936 279.82 114.757 280 115.624 280C116.491 280 117.2 280.18 117.2 280.4C117.2 280.62 118.01 280.8 119 280.8C119.99 280.8 120.8 280.98 120.8 281.2C120.8 281.422 121.867 281.6 123.2 281.6C124.533 281.6 125.6 281.778 125.6 282C125.6 282.238 127.125 282.4 129.376 282.4C131.463 282.4 133.263 282.579 133.4 282.8C133.548 283.039 136.196 283.2 140 283.2C143.804 283.2 146.452 283.039 146.6 282.8C146.737 282.579 148.537 282.4 150.624 282.4C152.875 282.4 154.4 282.238 154.4 282C154.4 281.78 155.379 281.6 156.576 281.6C157.773 281.6 158.864 281.42 159 281.2C159.136 280.98 160.047 280.8 161.024 280.8C162.001 280.8 162.8 280.62 162.8 280.4C162.8 280.18 163.509 280 164.376 280C165.243 280 166.064 279.82 166.2 279.6C166.336 279.38 166.989 279.2 167.652 279.2C169.033 279.2 170.201 278.252 169.743 277.503C169.4 276.941 162.093 268.178 160.152 266C159.106 264.826 156.424 261.723 151.854 256.4C144.938 248.343 135.795 237.755 135.62 237.6C135.496 237.49 134.406 236.231 133.198 234.801C131.989 233.372 130.439 231.572 129.752 230.801C121.433 221.458 121.561 221.771 125.903 221.412C134.381 220.711 137.704 219.838 143.572 216.773L146.6 215.192L150 218.707C151.87 220.64 157.72 226.716 163 232.209C183.187 253.209 190.688 260.591 191.313 260.072C192.66 258.954 194.677 249.814 196.359 237.2C196.905 233.11 197.498 228.184 198.023 223.4C199.196 212.698 199.368 211.792 200.213 211.907C209.388 213.159 220.236 211.885 230.597 208.339C236.258 206.401 235.934 205.614 234.002 216.6C233.538 219.24 232.996 222.39 232.799 223.6C232.601 224.81 232.242 226.88 232 228.2C231.758 229.52 231.399 231.59 231.202 232.8C231.004 234.01 230.282 238.24 229.597 242.2C226.656 259.198 226.308 266.8 228.473 266.8C228.847 266.8 229.264 266.98 229.4 267.2C229.536 267.42 230.256 267.6 231 267.6C231.744 267.6 232.464 267.78 232.6 268C232.736 268.22 233.456 268.4 234.2 268.4C234.944 268.4 235.664 268.58 235.8 268.8C235.936 269.02 236.847 269.2 237.824 269.2C238.801 269.2 239.6 269.38 239.6 269.6C239.6 270.931 242.743 269.748 244.488 267.761L245.682 266.401L253.741 266.649C261.137 266.876 271.545 266.416 273.9 265.758C275.158 265.407 275.032 266.035 273.424 268.141C271.346 270.864 271.396 271.374 273.756 271.524C274.831 271.593 275.902 271.458 276.136 271.224C276.369 270.991 277.953 270.8 279.656 270.8C281.359 270.8 282.864 270.62 283 270.4C283.136 270.18 284.126 270 285.2 270C286.274 270 287.264 269.82 287.4 269.6C287.536 269.38 288.346 269.2 289.2 269.2C290.054 269.2 290.864 269.02 291 268.8C291.136 268.58 291.766 268.4 292.4 268.4C293.034 268.4 293.664 268.22 293.8 268C293.936 267.78 294.757 267.6 295.624 267.6C296.491 267.6 297.2 267.42 297.2 267.2C297.2 266.98 297.74 266.8 298.4 266.8C299.06 266.8 299.6 266.62 299.6 266.4C299.6 266.18 300.14 266 300.8 266C301.46 266 302 265.82 302 265.6C302 265.38 302.439 265.2 302.976 265.2C303.513 265.2 304.064 265.02 304.2 264.8C304.336 264.58 304.887 264.4 305.424 264.4C305.961 264.4 306.4 264.22 306.4 264C306.4 263.78 306.76 263.6 307.2 263.6C307.64 263.6 308 263.42 308 263.2C308 262.98 308.439 262.8 308.976 262.8C309.513 262.8 310.064 262.62 310.2 262.4C310.336 262.18 310.797 262 311.224 262C311.651 262 312.001 261.865 312.003 261.7C312.007 261.341 313.944 260.4 314.68 260.4C314.966 260.4 315.2 260.22 315.2 260C315.2 259.78 315.52 259.6 315.912 259.6C316.303 259.6 316.883 259.24 317.2 258.8C317.517 258.36 318.072 258 318.432 258C318.793 258 319.751 257.55 320.562 257C321.372 256.45 322.164 256 322.322 256C322.479 256 323.101 255.543 323.704 254.984C324.307 254.425 324.8 254.092 324.8 254.245C324.8 254.398 325.136 254.135 325.547 253.661C325.958 253.188 326.476 252.8 326.699 252.8C326.921 252.8 327.845 252.08 328.752 251.2C329.659 250.32 330.583 249.6 330.805 249.6C331.276 249.6 342.799 238.185 342.802 237.716C342.803 237.542 343.613 236.508 344.602 235.417C345.591 234.326 346.4 233.241 346.4 233.005C346.4 232.769 346.76 232.317 347.2 232C347.64 231.683 348 231.143 348 230.8C348 230.457 348.36 229.917 348.8 229.6C349.24 229.283 349.6 228.743 349.6 228.4C349.6 228.057 349.96 227.517 350.4 227.2C350.84 226.883 351.2 226.369 351.2 226.059C351.2 225.748 351.525 225.203 351.922 224.847C352.319 224.491 353.059 223.3 353.568 222.2C354.077 221.1 354.625 220.11 354.786 220C355.272 219.668 357.587 214.564 357.852 213.238C357.989 212.557 358.257 212 358.45 212C358.642 212 358.8 211.64 358.8 211.2C358.8 210.76 358.98 210.4 359.2 210.4C359.42 210.4 359.6 210.04 359.6 209.6C359.6 209.16 359.78 208.8 360 208.8C360.22 208.8 360.4 208.35 360.4 207.8C360.4 207.25 360.58 206.8 360.8 206.8C361.02 206.8 361.2 206.249 361.2 205.576C361.2 204.863 361.367 204.456 361.6 204.6C361.827 204.74 362 204.404 362 203.824C362 203.261 362.18 202.8 362.4 202.8C362.62 202.8 362.8 202.26 362.8 201.6C362.8 200.94 362.98 200.4 363.2 200.4C363.42 200.4 363.6 199.86 363.6 199.2C363.6 198.54 363.78 198 364 198C364.22 198 364.4 197.471 364.4 196.824C364.4 196.177 364.58 195.536 364.8 195.4C365.02 195.264 365.2 194.533 365.2 193.776C365.2 193.019 365.343 192.4 365.518 192.4C365.693 192.4 365.882 191.725 365.937 190.901C365.993 190.076 366.21 189.23 366.419 189.021C366.629 188.811 366.8 187.787 366.8 186.744C366.8 185.701 366.98 184.736 367.2 184.6C367.42 184.464 367.6 183.373 367.6 182.176C367.6 180.979 367.775 180 367.989 180C368.235 180 368.321 175.851 368.224 168.7C368.062 156.716 367.763 152 367.166 152C366.965 152 366.8 151.28 366.8 150.4C366.8 149.52 366.657 148.8 366.482 148.8C366.307 148.8 366.119 148.125 366.064 147.3C366.01 146.475 365.793 145.74 365.582 145.667C365.372 145.593 365.2 144.918 365.2 144.167C365.2 143.415 365.02 142.8 364.8 142.8C364.58 142.8 364.4 142.26 364.4 141.6C364.4 140.94 364.22 140.4 364 140.4C363.78 140.4 363.6 139.961 363.6 139.424C363.6 138.887 363.42 138.336 363.2 138.2C362.98 138.064 362.8 137.603 362.8 137.176C362.8 136.749 362.62 136.4 362.4 136.4C362.18 136.4 362 135.961 362 135.424C362 134.887 361.82 134.336 361.6 134.2C361.38 134.064 361.2 133.603 361.2 133.176C361.2 132.749 361.02 132.4 360.8 132.4C360.58 132.4 360.4 132.04 360.4 131.6C360.4 131.16 360.259 130.8 360.086 130.8C359.914 130.8 359.239 129.63 358.586 128.201C357.934 126.771 357.265 125.601 357.1 125.601C356.935 125.6 356.8 125.24 356.8 124.8C356.8 124.015 356.227 123.709 355.862 124.3C355.76 124.465 355.47 126.4 355.217 128.6C350.81 166.934 328.512 190.854 289.8 198.777C288.48 199.047 287.04 199.346 286.6 199.44C280.751 200.702 270.643 201.088 265.798 200.235C254.476 198.243 254.274 193.375 265.145 184.495C267.485 182.584 269.49 180.925 269.6 180.809C269.71 180.693 271.332 179.311 273.204 177.737C283.531 169.058 292.931 156.283 297.735 144.4C298.135 143.41 298.623 142.24 298.82 141.8C299.262 140.814 302.319 131.12 302.794 129.2C303.201 127.554 303.783 124.446 304.375 120.754C307.925 98.632 292.807 83.807 286.614 103.337C285.836 105.792 284.829 108.97 284.376 110.4C276.89 134.044 256.87 155.835 234.8 164.362C232.93 165.085 231.04 165.827 230.6 166.012C230.16 166.196 229.17 166.538 228.4 166.77C227.63 167.003 226.19 167.446 225.2 167.754C206.641 173.534 184.143 175.066 166.2 171.772C155.263 169.763 149.886 167.749 134.2 159.781C120.379 152.761 118.484 152.072 113.701 152.33C111.794 152.433 109.491 154.676 108.665 157.234C106.234 164.76 109.625 169.136 126.503 180.255C142.403 190.73 144.132 192.226 145.994 197.115C149.851 207.238 135.376 215.11 118.6 212.013C96.2798 207.893 79.3178 199.796 67.2748 187.512C61.6038 181.728 58.0318 176.271 54.3718 167.8C52.2358 162.857 50.3168 154.749 49.5668 147.5C47.5228 127.734 59.4608 105.993 77.3888 96.83C82.8108 94.059 82.8798 94.083 91.6758 101.916C100.332 109.623 110.905 115.003 122.4 117.548C136.9 120.758 148.4 118.833 148.4 113.195C148.4 109.99 147.202 108.397 141.265 103.704C134.272 98.176 130.249 93.563 125.652 85.802C122.489 80.462 120.525 76.557 117.802 70.2C116.37 66.859 114.417 61.076 113.614 57.8C112.6 53.665 112.033 52.911 110.903 54.195Z"/>
</mask>
<path fill-rule="evenodd" clip-rule="evenodd" d="M198.1 9.07601C198.485 9.17601 199.115 9.17601 199.5 9.07601C199.885 8.97501 199.57 8.89301 198.8 8.89301C198.03 8.89301 197.715 8.97501 198.1 9.07601ZM110.903 54.195C110.63 54.505 110.102 55.398 109.729 56.18C109.357 56.961 108.905 57.6 108.726 57.6C108.547 57.6 108.4 57.836 108.4 58.125C108.4 58.413 108.075 58.998 107.678 59.425C107.28 59.851 106.697 60.785 106.38 61.5C106.064 62.215 105.669 62.8 105.502 62.8C105.336 62.8 105.2 63.16 105.2 63.6C105.2 64.04 105.02 64.4 104.8 64.4C104.58 64.4 104.4 64.634 104.4 64.92C104.4 65.656 103.459 67.593 103.1 67.597C102.935 67.599 102.8 67.96 102.8 68.4C102.8 68.84 102.62 69.2 102.4 69.2C102.18 69.2 102 69.56 102 70C102 70.44 101.82 70.8 101.6 70.8C101.38 70.8 101.2 71.261 101.2 71.824C101.2 72.404 101.027 72.74 100.8 72.6C100.567 72.456 100.4 72.863 100.4 73.576C100.4 74.249 100.22 74.8 99.9998 74.8C99.7798 74.8 99.5998 75.029 99.5998 75.309C99.5998 75.914 96.0878 76.8 93.6878 76.8C92.7598 76.8 91.9998 76.98 91.9998 77.2C91.9998 77.42 91.2008 77.6 90.2238 77.6C89.2468 77.6 88.3478 77.76 88.2268 77.956C88.1058 78.151 87.3308 78.427 86.5038 78.567C82.8508 79.189 82.3998 79.307 82.3998 79.644C82.3998 79.84 81.9608 80 81.4238 80C80.8868 80 80.3358 80.18 80.1998 80.4C80.0638 80.62 79.5028 80.8 78.9528 80.8C78.3878 80.8 78.0598 80.974 78.1998 81.2C78.3398 81.427 78.0038 81.6 77.4238 81.6C76.8608 81.6 76.3998 81.747 76.3998 81.928C76.3998 82.108 75.4998 82.5 74.3998 82.8C73.2998 83.1 72.3998 83.492 72.3998 83.672C72.3998 83.853 72.0398 84 71.5998 84C71.1598 84 70.7998 84.18 70.7998 84.4C70.7998 84.62 70.5168 84.8 70.1708 84.8C69.8258 84.8 69.2708 85.072 68.9388 85.404C68.6068 85.736 68.1698 85.905 67.9678 85.78C67.7648 85.655 67.5998 85.743 67.5998 85.976C67.5998 86.209 67.3638 86.4 67.0748 86.4C66.7868 86.4 66.1638 86.76 65.6918 87.2C65.2198 87.64 64.5558 88 64.2168 88C63.8778 88 63.5998 88.15 63.5998 88.332C63.5998 88.515 63.1048 88.919 62.4998 89.23C61.8948 89.54 61.1088 90.111 60.7528 90.497C60.3968 90.884 59.9788 91.2 59.8248 91.2C59.6698 91.2 59.3078 91.425 59.0198 91.7C58.7328 91.975 58.0878 92.47 57.5858 92.8C55.1448 94.406 47.9998 101.276 47.9998 102.017C47.9998 102.254 47.8198 102.336 47.5998 102.2C47.3798 102.064 47.1998 102.189 47.1998 102.479C47.1998 102.768 46.4798 103.769 45.5998 104.703C44.7188 105.638 43.9538 106.62 43.8998 106.886C43.8448 107.153 43.3948 107.825 42.8998 108.381C42.4048 108.937 41.9998 109.619 41.9998 109.896C41.9998 110.173 41.8198 110.4 41.5998 110.4C41.3798 110.4 41.1998 110.771 41.1998 111.224C41.1998 111.677 41.0198 111.936 40.7998 111.8C40.5798 111.664 40.3998 111.833 40.3998 112.176C40.3998 112.519 40.2198 112.8 39.9998 112.8C39.7798 112.8 39.5998 113.16 39.5998 113.6C39.5998 114.04 39.4198 114.4 39.1998 114.4C38.9798 114.4 38.7998 114.76 38.7998 115.2C38.7998 115.64 38.6198 116 38.3998 116C38.1798 116 37.9998 116.27 37.9998 116.6C37.9998 116.93 37.8648 117.201 37.6998 117.203C37.2938 117.207 36.3998 119.186 36.3998 120.08C36.3998 120.476 36.2198 120.8 35.9998 120.8C35.7798 120.8 35.5998 121.16 35.5998 121.6C35.5998 122.04 35.4198 122.4 35.1998 122.4C34.9798 122.4 34.7998 122.76 34.7998 123.2C34.7998 123.64 34.6198 124 34.3998 124C34.1798 124 33.9998 124.362 33.9998 124.805C33.9998 125.248 33.8198 125.968 33.5998 126.405C33.3798 126.842 33.0198 127.558 32.7998 127.995C32.5798 128.432 32.3998 129.242 32.3998 129.795C32.3998 130.348 32.2198 130.8 31.9998 130.8C31.7798 130.8 31.5998 131.34 31.5998 132C31.5998 132.66 31.4198 133.2 31.1998 133.2C30.9798 133.2 30.7998 133.729 30.7998 134.376C30.7998 135.023 30.6198 135.664 30.3998 135.8C30.1798 135.936 29.9998 136.847 29.9998 137.824C29.9998 138.801 29.8198 139.6 29.5998 139.6C29.3798 139.6 29.1998 140.579 29.1998 141.776C29.1998 142.973 29.0198 144.064 28.7998 144.2C28.2568 144.536 28.2568 164.264 28.7998 164.6C29.0198 164.736 29.1998 165.816 29.1998 167C29.1998 168.184 29.3798 169.264 29.5998 169.4C29.8198 169.536 29.9998 170.357 29.9998 171.224C29.9998 172.091 30.1798 172.8 30.3998 172.8C30.6198 172.8 30.7998 173.419 30.7998 174.176C30.7998 174.933 30.9798 175.664 31.1998 175.8C31.4198 175.936 31.5998 176.476 31.5998 177C31.5998 177.524 31.7798 178.064 31.9998 178.2C32.2198 178.336 32.3998 178.977 32.3998 179.624C32.3998 180.271 32.5798 180.8 32.7998 180.8C33.0198 180.8 33.1998 181.16 33.1998 181.6C33.1998 182.04 33.3798 182.4 33.5998 182.4C33.8198 182.4 33.9998 182.839 33.9998 183.376C33.9998 183.913 34.1798 184.464 34.3998 184.6C34.6198 184.736 34.7998 185.197 34.7998 185.624C34.7998 186.051 34.9798 186.4 35.1998 186.4C35.4198 186.4 35.5998 186.76 35.5998 187.2C35.5998 187.64 35.7798 188 35.9998 188C36.2198 188 36.3998 188.36 36.3998 188.8C36.3998 189.24 36.5458 189.6 36.7248 189.6C36.9038 189.6 37.2978 190.23 37.5998 191C37.9018 191.77 38.2958 192.4 38.4748 192.4C38.6538 192.4 38.7998 192.76 38.7998 193.2C38.7998 193.64 38.9798 194 39.1998 194C39.4198 194 39.5998 194.32 39.5998 194.712C39.5998 195.103 39.9598 195.683 40.3998 196C40.8398 196.317 41.1998 196.897 41.1998 197.288C41.1998 197.68 41.3528 198 41.5388 198C41.7258 198 42.2028 198.72 42.5998 199.6C42.9968 200.48 43.4448 201.2 43.5968 201.2C43.7478 201.2 44.0698 201.636 44.3128 202.168C44.7418 203.111 45.6278 204.2 48.2998 207.072L49.5998 208.469V214.011C49.5998 217.274 49.7638 219.654 49.9998 219.8C50.2198 219.936 50.3998 220.847 50.3998 221.824C50.3998 222.801 50.5798 223.6 50.7998 223.6C51.0198 223.6 51.1998 224.32 51.1998 225.2C51.1998 226.08 51.3798 226.8 51.5998 226.8C51.8198 226.8 51.9998 227.34 51.9998 228C51.9998 228.66 52.1798 229.2 52.3998 229.2C52.6198 229.2 52.7998 229.74 52.7998 230.4C52.7998 231.06 52.9798 231.6 53.1998 231.6C53.4198 231.6 53.5998 231.949 53.5998 232.376C53.5998 232.803 53.7798 233.264 53.9998 233.4C54.2198 233.536 54.3998 234.087 54.3998 234.624C54.3998 235.161 54.5358 235.6 54.7018 235.6C54.8688 235.6 55.2628 236.185 55.5778 236.9C55.8928 237.615 56.3888 238.44 56.6788 238.732C56.9698 239.025 57.1048 239.43 56.9798 239.632C56.8548 239.835 56.9298 240 57.1468 240C57.3648 240 57.8598 240.72 58.2478 241.6C58.6358 242.48 59.0988 243.2 59.2768 243.2C59.4548 243.2 59.5998 243.476 59.5998 243.813C59.5998 244.149 59.8688 244.528 60.1978 244.654C60.5258 244.781 60.7158 245.012 60.6188 245.169C60.5218 245.326 60.7928 245.707 61.2208 246.015C61.6498 246.324 61.9998 246.798 61.9998 247.07C61.9998 247.885 69.6598 255.997 71.5658 257.2C72.0878 257.53 73.1138 258.385 73.8448 259.1C74.5748 259.815 75.2868 260.4 75.4258 260.4C75.5648 260.4 76.1828 260.94 76.7998 261.6C77.4168 262.26 78.1688 262.8 78.4718 262.8C78.7748 262.8 79.2828 263.16 79.5998 263.6C79.9168 264.04 80.4568 264.4 80.7998 264.4C81.1428 264.4 81.6828 264.76 81.9998 265.2C82.3168 265.64 82.8568 266 83.1998 266C83.5428 266 84.0828 266.36 84.3998 266.8C84.7168 267.24 85.2088 267.6 85.4938 267.6C86.0418 267.6 87.6618 268.418 88.0038 268.868C88.1158 269.015 88.4688 269.195 88.7878 269.268C89.1068 269.341 89.7248 269.715 90.1598 270.1C90.5948 270.485 91.1868 270.8 91.4748 270.8C91.7638 270.8 91.9998 270.98 91.9998 271.2C91.9998 271.42 92.3448 271.6 92.7668 271.6C93.1878 271.6 93.5928 271.735 93.6668 271.9C93.8018 272.205 96.3518 273.365 99.5998 274.598C100.59 274.974 101.713 275.444 102.095 275.641C102.477 275.838 103.152 276 103.595 276C104.038 276 104.4 276.18 104.4 276.4C104.4 276.62 104.94 276.8 105.6 276.8C106.26 276.8 106.8 276.98 106.8 277.2C106.8 277.42 107.34 277.6 108 277.6C108.66 277.6 109.2 277.78 109.2 278C109.2 278.22 109.65 278.4 110.2 278.4C110.75 278.4 111.2 278.58 111.2 278.8C111.2 279.02 111.729 279.2 112.376 279.2C113.023 279.2 113.664 279.38 113.8 279.6C113.936 279.82 114.757 280 115.624 280C116.491 280 117.2 280.18 117.2 280.4C117.2 280.62 118.01 280.8 119 280.8C119.99 280.8 120.8 280.98 120.8 281.2C120.8 281.422 121.867 281.6 123.2 281.6C124.533 281.6 125.6 281.778 125.6 282C125.6 282.238 127.125 282.4 129.376 282.4C131.463 282.4 133.263 282.579 133.4 282.8C133.548 283.039 136.196 283.2 140 283.2C143.804 283.2 146.452 283.039 146.6 282.8C146.737 282.579 148.537 282.4 150.624 282.4C152.875 282.4 154.4 282.238 154.4 282C154.4 281.78 155.379 281.6 156.576 281.6C157.773 281.6 158.864 281.42 159 281.2C159.136 280.98 160.047 280.8 161.024 280.8C162.001 280.8 162.8 280.62 162.8 280.4C162.8 280.18 163.509 280 164.376 280C165.243 280 166.064 279.82 166.2 279.6C166.336 279.38 166.989 279.2 167.652 279.2C169.033 279.2 170.201 278.252 169.743 277.503C169.4 276.941 162.093 268.178 160.152 266C159.106 264.826 156.424 261.723 151.854 256.4C144.938 248.343 135.795 237.755 135.62 237.6C135.496 237.49 134.406 236.231 133.198 234.801C131.989 233.372 130.439 231.572 129.752 230.801C121.433 221.458 121.561 221.771 125.903 221.412C134.381 220.711 137.704 219.838 143.572 216.773L146.6 215.192L150 218.707C151.87 220.64 157.72 226.716 163 232.209C183.187 253.209 190.688 260.591 191.313 260.072C192.66 258.954 194.677 249.814 196.359 237.2C196.905 233.11 197.498 228.184 198.023 223.4C199.196 212.698 199.368 211.792 200.213 211.907C209.388 213.159 220.236 211.885 230.597 208.339C236.258 206.401 235.934 205.614 234.002 216.6C233.538 219.24 232.996 222.39 232.799 223.6C232.601 224.81 232.242 226.88 232 228.2C231.758 229.52 231.399 231.59 231.202 232.8C231.004 234.01 230.282 238.24 229.597 242.2C226.656 259.198 226.308 266.8 228.473 266.8C228.847 266.8 229.264 266.98 229.4 267.2C229.536 267.42 230.256 267.6 231 267.6C231.744 267.6 232.464 267.78 232.6 268C232.736 268.22 233.456 268.4 234.2 268.4C234.944 268.4 235.664 268.58 235.8 268.8C235.936 269.02 236.847 269.2 237.824 269.2C238.801 269.2 239.6 269.38 239.6 269.6C239.6 270.931 242.743 269.748 244.488 267.761L245.682 266.401L253.741 266.649C261.137 266.876 271.545 266.416 273.9 265.758C275.158 265.407 275.032 266.035 273.424 268.141C271.346 270.864 271.396 271.374 273.756 271.524C274.831 271.593 275.902 271.458 276.136 271.224C276.369 270.991 277.953 270.8 279.656 270.8C281.359 270.8 282.864 270.62 283 270.4C283.136 270.18 284.126 270 285.2 270C286.274 270 287.264 269.82 287.4 269.6C287.536 269.38 288.346 269.2 289.2 269.2C290.054 269.2 290.864 269.02 291 268.8C291.136 268.58 291.766 268.4 292.4 268.4C293.034 268.4 293.664 268.22 293.8 268C293.936 267.78 294.757 267.6 295.624 267.6C296.491 267.6 297.2 267.42 297.2 267.2C297.2 266.98 297.74 266.8 298.4 266.8C299.06 266.8 299.6 266.62 299.6 266.4C299.6 266.18 300.14 266 300.8 266C301.46 266 302 265.82 302 265.6C302 265.38 302.439 265.2 302.976 265.2C303.513 265.2 304.064 265.02 304.2 264.8C304.336 264.58 304.887 264.4 305.424 264.4C305.961 264.4 306.4 264.22 306.4 264C306.4 263.78 306.76 263.6 307.2 263.6C307.64 263.6 308 263.42 308 263.2C308 262.98 308.439 262.8 308.976 262.8C309.513 262.8 310.064 262.62 310.2 262.4C310.336 262.18 310.797 262 311.224 262C311.651 262 312.001 261.865 312.003 261.7C312.007 261.341 313.944 260.4 314.68 260.4C314.966 260.4 315.2 260.22 315.2 260C315.2 259.78 315.52 259.6 315.912 259.6C316.303 259.6 316.883 259.24 317.2 258.8C317.517 258.36 318.072 258 318.432 258C318.793 258 319.751 257.55 320.562 257C321.372 256.45 322.164 256 322.322 256C322.479 256 323.101 255.543 323.704 254.984C324.307 254.425 324.8 254.092 324.8 254.245C324.8 254.398 325.136 254.135 325.547 253.661C325.958 253.188 326.476 252.8 326.699 252.8C326.921 252.8 327.845 252.08 328.752 251.2C329.659 250.32 330.583 249.6 330.805 249.6C331.276 249.6 342.799 238.185 342.802 237.716C342.803 237.542 343.613 236.508 344.602 235.417C345.591 234.326 346.4 233.241 346.4 233.005C346.4 232.769 346.76 232.317 347.2 232C347.64 231.683 348 231.143 348 230.8C348 230.457 348.36 229.917 348.8 229.6C349.24 229.283 349.6 228.743 349.6 228.4C349.6 228.057 349.96 227.517 350.4 227.2C350.84 226.883 351.2 226.369 351.2 226.059C351.2 225.748 351.525 225.203 351.922 224.847C352.319 224.491 353.059 223.3 353.568 222.2C354.077 221.1 354.625 220.11 354.786 220C355.272 219.668 357.587 214.564 357.852 213.238C357.989 212.557 358.257 212 358.45 212C358.642 212 358.8 211.64 358.8 211.2C358.8 210.76 358.98 210.4 359.2 210.4C359.42 210.4 359.6 210.04 359.6 209.6C359.6 209.16 359.78 208.8 360 208.8C360.22 208.8 360.4 208.35 360.4 207.8C360.4 207.25 360.58 206.8 360.8 206.8C361.02 206.8 361.2 206.249 361.2 205.576C361.2 204.863 361.367 204.456 361.6 204.6C361.827 204.74 362 204.404 362 203.824C362 203.261 362.18 202.8 362.4 202.8C362.62 202.8 362.8 202.26 362.8 201.6C362.8 200.94 362.98 200.4 363.2 200.4C363.42 200.4 363.6 199.86 363.6 199.2C363.6 198.54 363.78 198 364 198C364.22 198 364.4 197.471 364.4 196.824C364.4 196.177 364.58 195.536 364.8 195.4C365.02 195.264 365.2 194.533 365.2 193.776C365.2 193.019 365.343 192.4 365.518 192.4C365.693 192.4 365.882 191.725 365.937 190.901C365.993 190.076 366.21 189.23 366.419 189.021C366.629 188.811 366.8 187.787 366.8 186.744C366.8 185.701 366.98 184.736 367.2 184.6C367.42 184.464 367.6 183.373 367.6 182.176C367.6 180.979 367.775 180 367.989 180C368.235 180 368.321 175.851 368.224 168.7C368.062 156.716 367.763 152 367.166 152C366.965 152 366.8 151.28 366.8 150.4C366.8 149.52 366.657 148.8 366.482 148.8C366.307 148.8 366.119 148.125 366.064 147.3C366.01 146.475 365.793 145.74 365.582 145.667C365.372 145.593 365.2 144.918 365.2 144.167C365.2 143.415 365.02 142.8 364.8 142.8C364.58 142.8 364.4 142.26 364.4 141.6C364.4 140.94 364.22 140.4 364 140.4C363.78 140.4 363.6 139.961 363.6 139.424C363.6 138.887 363.42 138.336 363.2 138.2C362.98 138.064 362.8 137.603 362.8 137.176C362.8 136.749 362.62 136.4 362.4 136.4C362.18 136.4 362 135.961 362 135.424C362 134.887 361.82 134.336 361.6 134.2C361.38 134.064 361.2 133.603 361.2 133.176C361.2 132.749 361.02 132.4 360.8 132.4C360.58 132.4 360.4 132.04 360.4 131.6C360.4 131.16 360.259 130.8 360.086 130.8C359.914 130.8 359.239 129.63 358.586 128.201C357.934 126.771 357.265 125.601 357.1 125.601C356.935 125.6 356.8 125.24 356.8 124.8C356.8 124.015 356.227 123.709 355.862 124.3C355.76 124.465 355.47 126.4 355.217 128.6C350.81 166.934 328.512 190.854 289.8 198.777C288.48 199.047 287.04 199.346 286.6 199.44C280.751 200.702 270.643 201.088 265.798 200.235C254.476 198.243 254.274 193.375 265.145 184.495C267.485 182.584 269.49 180.925 269.6 180.809C269.71 180.693 271.332 179.311 273.204 177.737C283.531 169.058 292.931 156.283 297.735 144.4C298.135 143.41 298.623 142.24 298.82 141.8C299.262 140.814 302.319 131.12 302.794 129.2C303.201 127.554 303.783 124.446 304.375 120.754C307.925 98.632 292.807 83.807 286.614 103.337C285.836 105.792 284.829 108.97 284.376 110.4C276.89 134.044 256.87 155.835 234.8 164.362C232.93 165.085 231.04 165.827 230.6 166.012C230.16 166.196 229.17 166.538 228.4 166.77C227.63 167.003 226.19 167.446 225.2 167.754C206.641 173.534 184.143 175.066 166.2 171.772C155.263 169.763 149.886 167.749 134.2 159.781C120.379 152.761 118.484 152.072 113.701 152.33C111.794 152.433 109.491 154.676 108.665 157.234C106.234 164.76 109.625 169.136 126.503 180.255C142.403 190.73 144.132 192.226 145.994 197.115C149.851 207.238 135.376 215.11 118.6 212.013C96.2798 207.893 79.3178 199.796 67.2748 187.512C61.6038 181.728 58.0318 176.271 54.3718 167.8C52.2358 162.857 50.3168 154.749 49.5668 147.5C47.5228 127.734 59.4608 105.993 77.3888 96.83C82.8108 94.059 82.8798 94.083 91.6758 101.916C100.332 109.623 110.905 115.003 122.4 117.548C136.9 120.758 148.4 118.833 148.4 113.195C148.4 109.99 147.202 108.397 141.265 103.704C134.272 98.176 130.249 93.563 125.652 85.802C122.489 80.462 120.525 76.557 117.802 70.2C116.37 66.859 114.417 61.076 113.614 57.8C112.6 53.665 112.033 52.911 110.903 54.195Z" fill="white"/>
<path fill-rule="evenodd" clip-rule="evenodd" d="M198.1 9.07601C198.485 9.17601 199.115 9.17601 199.5 9.07601C199.885 8.97501 199.57 8.89301 198.8 8.89301C198.03 8.89301 197.715 8.97501 198.1 9.07601ZM110.903 54.195C110.63 54.505 110.102 55.398 109.729 56.18C109.357 56.961 108.905 57.6 108.726 57.6C108.547 57.6 108.4 57.836 108.4 58.125C108.4 58.413 108.075 58.998 107.678 59.425C107.28 59.851 106.697 60.785 106.38 61.5C106.064 62.215 105.669 62.8 105.502 62.8C105.336 62.8 105.2 63.16 105.2 63.6C105.2 64.04 105.02 64.4 104.8 64.4C104.58 64.4 104.4 64.634 104.4 64.92C104.4 65.656 103.459 67.593 103.1 67.597C102.935 67.599 102.8 67.96 102.8 68.4C102.8 68.84 102.62 69.2 102.4 69.2C102.18 69.2 102 69.56 102 70C102 70.44 101.82 70.8 101.6 70.8C101.38 70.8 101.2 71.261 101.2 71.824C101.2 72.404 101.027 72.74 100.8 72.6C100.567 72.456 100.4 72.863 100.4 73.576C100.4 74.249 100.22 74.8 99.9998 74.8C99.7798 74.8 99.5998 75.029 99.5998 75.309C99.5998 75.914 96.0878 76.8 93.6878 76.8C92.7598 76.8 91.9998 76.98 91.9998 77.2C91.9998 77.42 91.2008 77.6 90.2238 77.6C89.2468 77.6 88.3478 77.76 88.2268 77.956C88.1058 78.151 87.3308 78.427 86.5038 78.567C82.8508 79.189 82.3998 79.307 82.3998 79.644C82.3998 79.84 81.9608 80 81.4238 80C80.8868 80 80.3358 80.18 80.1998 80.4C80.0638 80.62 79.5028 80.8 78.9528 80.8C78.3878 80.8 78.0598 80.974 78.1998 81.2C78.3398 81.427 78.0038 81.6 77.4238 81.6C76.8608 81.6 76.3998 81.747 76.3998 81.928C76.3998 82.108 75.4998 82.5 74.3998 82.8C73.2998 83.1 72.3998 83.492 72.3998 83.672C72.3998 83.853 72.0398 84 71.5998 84C71.1598 84 70.7998 84.18 70.7998 84.4C70.7998 84.62 70.5168 84.8 70.1708 84.8C69.8258 84.8 69.2708 85.072 68.9388 85.404C68.6068 85.736 68.1698 85.905 67.9678 85.78C67.7648 85.655 67.5998 85.743 67.5998 85.976C67.5998 86.209 67.3638 86.4 67.0748 86.4C66.7868 86.4 66.1638 86.76 65.6918 87.2C65.2198 87.64 64.5558 88 64.2168 88C63.8778 88 63.5998 88.15 63.5998 88.332C63.5998 88.515 63.1048 88.919 62.4998 89.23C61.8948 89.54 61.1088 90.111 60.7528 90.497C60.3968 90.884 59.9788 91.2 59.8248 91.2C59.6698 91.2 59.3078 91.425 59.0198 91.7C58.7328 91.975 58.0878 92.47 57.5858 92.8C55.1448 94.406 47.9998 101.276 47.9998 102.017C47.9998 102.254 47.8198 102.336 47.5998 102.2C47.3798 102.064 47.1998 102.189 47.1998 102.479C47.1998 102.768 46.4798 103.769 45.5998 104.703C44.7188 105.638 43.9538 106.62 43.8998 106.886C43.8448 107.153 43.3948 107.825 42.8998 108.381C42.4048 108.937 41.9998 109.619 41.9998 109.896C41.9998 110.173 41.8198 110.4 41.5998 110.4C41.3798 110.4 41.1998 110.771 41.1998 111.224C41.1998 111.677 41.0198 111.936 40.7998 111.8C40.5798 111.664 40.3998 111.833 40.3998 112.176C40.3998 112.519 40.2198 112.8 39.9998 112.8C39.7798 112.8 39.5998 113.16 39.5998 113.6C39.5998 114.04 39.4198 114.4 39.1998 114.4C38.9798 114.4 38.7998 114.76 38.7998 115.2C38.7998 115.64 38.6198 116 38.3998 116C38.1798 116 37.9998 116.27 37.9998 116.6C37.9998 116.93 37.8648 117.201 37.6998 117.203C37.2938 117.207 36.3998 119.186 36.3998 120.08C36.3998 120.476 36.2198 120.8 35.9998 120.8C35.7798 120.8 35.5998 121.16 35.5998 121.6C35.5998 122.04 35.4198 122.4 35.1998 122.4C34.9798 122.4 34.7998 122.76 34.7998 123.2C34.7998 123.64 34.6198 124 34.3998 124C34.1798 124 33.9998 124.362 33.9998 124.805C33.9998 125.248 33.8198 125.968 33.5998 126.405C33.3798 126.842 33.0198 127.558 32.7998 127.995C32.5798 128.432 32.3998 129.242 32.3998 129.795C32.3998 130.348 32.2198 130.8 31.9998 130.8C31.7798 130.8 31.5998 131.34 31.5998 132C31.5998 132.66 31.4198 133.2 31.1998 133.2C30.9798 133.2 30.7998 133.729 30.7998 134.376C30.7998 135.023 30.6198 135.664 30.3998 135.8C30.1798 135.936 29.9998 136.847 29.9998 137.824C29.9998 138.801 29.8198 139.6 29.5998 139.6C29.3798 139.6 29.1998 140.579 29.1998 141.776C29.1998 142.973 29.0198 144.064 28.7998 144.2C28.2568 144.536 28.2568 164.264 28.7998 164.6C29.0198 164.736 29.1998 165.816 29.1998 167C29.1998 168.184 29.3798 169.264 29.5998 169.4C29.8198 169.536 29.9998 170.357 29.9998 171.224C29.9998 172.091 30.1798 172.8 30.3998 172.8C30.6198 172.8 30.7998 173.419 30.7998 174.176C30.7998 174.933 30.9798 175.664 31.1998 175.8C31.4198 175.936 31.5998 176.476 31.5998 177C31.5998 177.524 31.7798 178.064 31.9998 178.2C32.2198 178.336 32.3998 178.977 32.3998 179.624C32.3998 180.271 32.5798 180.8 32.7998 180.8C33.0198 180.8 33.1998 181.16 33.1998 181.6C33.1998 182.04 33.3798 182.4 33.5998 182.4C33.8198 182.4 33.9998 182.839 33.9998 183.376C33.9998 183.913 34.1798 184.464 34.3998 184.6C34.6198 184.736 34.7998 185.197 34.7998 185.624C34.7998 186.051 34.9798 186.4 35.1998 186.4C35.4198 186.4 35.5998 186.76 35.5998 187.2C35.5998 187.64 35.7798 188 35.9998 188C36.2198 188 36.3998 188.36 36.3998 188.8C36.3998 189.24 36.5458 189.6 36.7248 189.6C36.9038 189.6 37.2978 190.23 37.5998 191C37.9018 191.77 38.2958 192.4 38.4748 192.4C38.6538 192.4 38.7998 192.76 38.7998 193.2C38.7998 193.64 38.9798 194 39.1998 194C39.4198 194 39.5998 194.32 39.5998 194.712C39.5998 195.103 39.9598 195.683 40.3998 196C40.8398 196.317 41.1998 196.897 41.1998 197.288C41.1998 197.68 41.3528 198 41.5388 198C41.7258 198 42.2028 198.72 42.5998 199.6C42.9968 200.48 43.4448 201.2 43.5968 201.2C43.7478 201.2 44.0698 201.636 44.3128 202.168C44.7418 203.111 45.6278 204.2 48.2998 207.072L49.5998 208.469V214.011C49.5998 217.274 49.7638 219.654 49.9998 219.8C50.2198 219.936 50.3998 220.847 50.3998 221.824C50.3998 222.801 50.5798 223.6 50.7998 223.6C51.0198 223.6 51.1998 224.32 51.1998 225.2C51.1998 226.08 51.3798 226.8 51.5998 226.8C51.8198 226.8 51.9998 227.34 51.9998 228C51.9998 228.66 52.1798 229.2 52.3998 229.2C52.6198 229.2 52.7998 229.74 52.7998 230.4C52.7998 231.06 52.9798 231.6 53.1998 231.6C53.4198 231.6 53.5998 231.949 53.5998 232.376C53.5998 232.803 53.7798 233.264 53.9998 233.4C54.2198 233.536 54.3998 234.087 54.3998 234.624C54.3998 235.161 54.5358 235.6 54.7018 235.6C54.8688 235.6 55.2628 236.185 55.5778 236.9C55.8928 237.615 56.3888 238.44 56.6788 238.732C56.9698 239.025 57.1048 239.43 56.9798 239.632C56.8548 239.835 56.9298 240 57.1468 240C57.3648 240 57.8598 240.72 58.2478 241.6C58.6358 242.48 59.0988 243.2 59.2768 243.2C59.4548 243.2 59.5998 243.476 59.5998 243.813C59.5998 244.149 59.8688 244.528 60.1978 244.654C60.5258 244.781 60.7158 245.012 60.6188 245.169C60.5218 245.326 60.7928 245.707 61.2208 246.015C61.6498 246.324 61.9998 246.798 61.9998 247.07C61.9998 247.885 69.6598 255.997 71.5658 257.2C72.0878 257.53 73.1138 258.385 73.8448 259.1C74.5748 259.815 75.2868 260.4 75.4258 260.4C75.5648 260.4 76.1828 260.94 76.7998 261.6C77.4168 262.26 78.1688 262.8 78.4718 262.8C78.7748 262.8 79.2828 263.16 79.5998 263.6C79.9168 264.04 80.4568 264.4 80.7998 264.4C81.1428 264.4 81.6828 264.76 81.9998 265.2C82.3168 265.64 82.8568 266 83.1998 266C83.5428 266 84.0828 266.36 84.3998 266.8C84.7168 267.24 85.2088 267.6 85.4938 267.6C86.0418 267.6 87.6618 268.418 88.0038 268.868C88.1158 269.015 88.4688 269.195 88.7878 269.268C89.1068 269.341 89.7248 269.715 90.1598 270.1C90.5948 270.485 91.1868 270.8 91.4748 270.8C91.7638 270.8 91.9998 270.98 91.9998 271.2C91.9998 271.42 92.3448 271.6 92.7668 271.6C93.1878 271.6 93.5928 271.735 93.6668 271.9C93.8018 272.205 96.3518 273.365 99.5998 274.598C100.59 274.974 101.713 275.444 102.095 275.641C102.477 275.838 103.152 276 103.595 276C104.038 276 104.4 276.18 104.4 276.4C104.4 276.62 104.94 276.8 105.6 276.8C106.26 276.8 106.8 276.98 106.8 277.2C106.8 277.42 107.34 277.6 108 277.6C108.66 277.6 109.2 277.78 109.2 278C109.2 278.22 109.65 278.4 110.2 278.4C110.75 278.4 111.2 278.58 111.2 278.8C111.2 279.02 111.729 279.2 112.376 279.2C113.023 279.2 113.664 279.38 113.8 279.6C113.936 279.82 114.757 280 115.624 280C116.491 280 117.2 280.18 117.2 280.4C117.2 280.62 118.01 280.8 119 280.8C119.99 280.8 120.8 280.98 120.8 281.2C120.8 281.422 121.867 281.6 123.2 281.6C124.533 281.6 125.6 281.778 125.6 282C125.6 282.238 127.125 282.4 129.376 282.4C131.463 282.4 133.263 282.579 133.4 282.8C133.548 283.039 136.196 283.2 140 283.2C143.804 283.2 146.452 283.039 146.6 282.8C146.737 282.579 148.537 282.4 150.624 282.4C152.875 282.4 154.4 282.238 154.4 282C154.4 281.78 155.379 281.6 156.576 281.6C157.773 281.6 158.864 281.42 159 281.2C159.136 280.98 160.047 280.8 161.024 280.8C162.001 280.8 162.8 280.62 162.8 280.4C162.8 280.18 163.509 280 164.376 280C165.243 280 166.064 279.82 166.2 279.6C166.336 279.38 166.989 279.2 167.652 279.2C169.033 279.2 170.201 278.252 169.743 277.503C169.4 276.941 162.093 268.178 160.152 266C159.106 264.826 156.424 261.723 151.854 256.4C144.938 248.343 135.795 237.755 135.62 237.6C135.496 237.49 134.406 236.231 133.198 234.801C131.989 233.372 130.439 231.572 129.752 230.801C121.433 221.458 121.561 221.771 125.903 221.412C134.381 220.711 137.704 219.838 143.572 216.773L146.6 215.192L150 218.707C151.87 220.64 157.72 226.716 163 232.209C183.187 253.209 190.688 260.591 191.313 260.072C192.66 258.954 194.677 249.814 196.359 237.2C196.905 233.11 197.498 228.184 198.023 223.4C199.196 212.698 199.368 211.792 200.213 211.907C209.388 213.159 220.236 211.885 230.597 208.339C236.258 206.401 235.934 205.614 234.002 216.6C233.538 219.24 232.996 222.39 232.799 223.6C232.601 224.81 232.242 226.88 232 228.2C231.758 229.52 231.399 231.59 231.202 232.8C231.004 234.01 230.282 238.24 229.597 242.2C226.656 259.198 226.308 266.8 228.473 266.8C228.847 266.8 229.264 266.98 229.4 267.2C229.536 267.42 230.256 267.6 231 267.6C231.744 267.6 232.464 267.78 232.6 268C232.736 268.22 233.456 268.4 234.2 268.4C234.944 268.4 235.664 268.58 235.8 268.8C235.936 269.02 236.847 269.2 237.824 269.2C238.801 269.2 239.6 269.38 239.6 269.6C239.6 270.931 242.743 269.748 244.488 267.761L245.682 266.401L253.741 266.649C261.137 266.876 271.545 266.416 273.9 265.758C275.158 265.407 275.032 266.035 273.424 268.141C271.346 270.864 271.396 271.374 273.756 271.524C274.831 271.593 275.902 271.458 276.136 271.224C276.369 270.991 277.953 270.8 279.656 270.8C281.359 270.8 282.864 270.62 283 270.4C283.136 270.18 284.126 270 285.2 270C286.274 270 287.264 269.82 287.4 269.6C287.536 269.38 288.346 269.2 289.2 269.2C290.054 269.2 290.864 269.02 291 268.8C291.136 268.58 291.766 268.4 292.4 268.4C293.034 268.4 293.664 268.22 293.8 268C293.936 267.78 294.757 267.6 295.624 267.6C296.491 267.6 297.2 267.42 297.2 267.2C297.2 266.98 297.74 266.8 298.4 266.8C299.06 266.8 299.6 266.62 299.6 266.4C299.6 266.18 300.14 266 300.8 266C301.46 266 302 265.82 302 265.6C302 265.38 302.439 265.2 302.976 265.2C303.513 265.2 304.064 265.02 304.2 264.8C304.336 264.58 304.887 264.4 305.424 264.4C305.961 264.4 306.4 264.22 306.4 264C306.4 263.78 306.76 263.6 307.2 263.6C307.64 263.6 308 263.42 308 263.2C308 262.98 308.439 262.8 308.976 262.8C309.513 262.8 310.064 262.62 310.2 262.4C310.336 262.18 310.797 262 311.224 262C311.651 262 312.001 261.865 312.003 261.7C312.007 261.341 313.944 260.4 314.68 260.4C314.966 260.4 315.2 260.22 315.2 260C315.2 259.78 315.52 259.6 315.912 259.6C316.303 259.6 316.883 259.24 317.2 258.8C317.517 258.36 318.072 258 318.432 258C318.793 258 319.751 257.55 320.562 257C321.372 256.45 322.164 256 322.322 256C322.479 256 323.101 255.543 323.704 254.984C324.307 254.425 324.8 254.092 324.8 254.245C324.8 254.398 325.136 254.135 325.547 253.661C325.958 253.188 326.476 252.8 326.699 252.8C326.921 252.8 327.845 252.08 328.752 251.2C329.659 250.32 330.583 249.6 330.805 249.6C331.276 249.6 342.799 238.185 342.802 237.716C342.803 237.542 343.613 236.508 344.602 235.417C345.591 234.326 346.4 233.241 346.4 233.005C346.4 232.769 346.76 232.317 347.2 232C347.64 231.683 348 231.143 348 230.8C348 230.457 348.36 229.917 348.8 229.6C349.24 229.283 349.6 228.743 349.6 228.4C349.6 228.057 349.96 227.517 350.4 227.2C350.84 226.883 351.2 226.369 351.2 226.059C351.2 225.748 351.525 225.203 351.922 224.847C352.319 224.491 353.059 223.3 353.568 222.2C354.077 221.1 354.625 220.11 354.786 220C355.272 219.668 357.587 214.564 357.852 213.238C357.989 212.557 358.257 212 358.45 212C358.642 212 358.8 211.64 358.8 211.2C358.8 210.76 358.98 210.4 359.2 210.4C359.42 210.4 359.6 210.04 359.6 209.6C359.6 209.16 359.78 208.8 360 208.8C360.22 208.8 360.4 208.35 360.4 207.8C360.4 207.25 360.58 206.8 360.8 206.8C361.02 206.8 361.2 206.249 361.2 205.576C361.2 204.863 361.367 204.456 361.6 204.6C361.827 204.74 362 204.404 362 203.824C362 203.261 362.18 202.8 362.4 202.8C362.62 202.8 362.8 202.26 362.8 201.6C362.8 200.94 362.98 200.4 363.2 200.4C363.42 200.4 363.6 199.86 363.6 199.2C363.6 198.54 363.78 198 364 198C364.22 198 364.4 197.471 364.4 196.824C364.4 196.177 364.58 195.536 364.8 195.4C365.02 195.264 365.2 194.533 365.2 193.776C365.2 193.019 365.343 192.4 365.518 192.4C365.693 192.4 365.882 191.725 365.937 190.901C365.993 190.076 366.21 189.23 366.419 189.021C366.629 188.811 366.8 187.787 366.8 186.744C366.8 185.701 366.98 184.736 367.2 184.6C367.42 184.464 367.6 183.373 367.6 182.176C367.6 180.979 367.775 180 367.989 180C368.235 180 368.321 175.851 368.224 168.7C368.062 156.716 367.763 152 367.166 152C366.965 152 366.8 151.28 366.8 150.4C366.8 149.52 366.657 148.8 366.482 148.8C366.307 148.8 366.119 148.125 366.064 147.3C366.01 146.475 365.793 145.74 365.582 145.667C365.372 145.593 365.2 144.918 365.2 144.167C365.2 143.415 365.02 142.8 364.8 142.8C364.58 142.8 364.4 142.26 364.4 141.6C364.4 140.94 364.22 140.4 364 140.4C363.78 140.4 363.6 139.961 363.6 139.424C363.6 138.887 363.42 138.336 363.2 138.2C362.98 138.064 362.8 137.603 362.8 137.176C362.8 136.749 362.62 136.4 362.4 136.4C362.18 136.4 362 135.961 362 135.424C362 134.887 361.82 134.336 361.6 134.2C361.38 134.064 361.2 133.603 361.2 133.176C361.2 132.749 361.02 132.4 360.8 132.4C360.58 132.4 360.4 132.04 360.4 131.6C360.4 131.16 360.259 130.8 360.086 130.8C359.914 130.8 359.239 129.63 358.586 128.201C357.934 126.771 357.265 125.601 357.1 125.601C356.935 125.6 356.8 125.24 356.8 124.8C356.8 124.015 356.227 123.709 355.862 124.3C355.76 124.465 355.47 126.4 355.217 128.6C350.81 166.934 328.512 190.854 289.8 198.777C288.48 199.047 287.04 199.346 286.6 199.44C280.751 200.702 270.643 201.088 265.798 200.235C254.476 198.243 254.274 193.375 265.145 184.495C267.485 182.584 269.49 180.925 269.6 180.809C269.71 180.693 271.332 179.311 273.204 177.737C283.531 169.058 292.931 156.283 297.735 144.4C298.135 143.41 298.623 142.24 298.82 141.8C299.262 140.814 302.319 131.12 302.794 129.2C303.201 127.554 303.783 124.446 304.375 120.754C307.925 98.632 292.807 83.807 286.614 103.337C285.836 105.792 284.829 108.97 284.376 110.4C276.89 134.044 256.87 155.835 234.8 164.362C232.93 165.085 231.04 165.827 230.6 166.012C230.16 166.196 229.17 166.538 228.4 166.77C227.63 167.003 226.19 167.446 225.2 167.754C206.641 173.534 184.143 175.066 166.2 171.772C155.263 169.763 149.886 167.749 134.2 159.781C120.379 152.761 118.484 152.072 113.701 152.33C111.794 152.433 109.491 154.676 108.665 157.234C106.234 164.76 109.625 169.136 126.503 180.255C142.403 190.73 144.132 192.226 145.994 197.115C149.851 207.238 135.376 215.11 118.6 212.013C96.2798 207.893 79.3178 199.796 67.2748 187.512C61.6038 181.728 58.0318 176.271 54.3718 167.8C52.2358 162.857 50.3168 154.749 49.5668 147.5C47.5228 127.734 59.4608 105.993 77.3888 96.83C82.8108 94.059 82.8798 94.083 91.6758 101.916C100.332 109.623 110.905 115.003 122.4 117.548C136.9 120.758 148.4 118.833 148.4 113.195C148.4 109.99 147.202 108.397 141.265 103.704C134.272 98.176 130.249 93.563 125.652 85.802C122.489 80.462 120.525 76.557 117.802 70.2C116.37 66.859 114.417 61.076 113.614 57.8C112.6 53.665 112.033 52.911 110.903 54.195Z" stroke="black" stroke-width="16" mask="url(#path-2-outside-2_597_7)"/>
<mask id="path-3-outside-3_597_7" maskUnits="userSpaceOnUse" x="41.3394" y="0.909576" width="323" height="220" fill="black">
<rect fill="white" x="41.3394" y="0.909576" width="323" height="220"/>
<path fill-rule="evenodd" clip-rule="evenodd" d="M192.4 9.254C190.97 9.412 188.45 9.64 186.8 9.76C185.15 9.88 182.72 10.152 181.4 10.366C180.08 10.58 178.01 10.877 176.8 11.028C175.59 11.178 174.411 11.45 174.181 11.633C173.95 11.815 173.095 12.009 172.281 12.064C171.466 12.119 170.8 12.287 170.8 12.438C170.8 12.589 170.17 12.822 169.4 12.956C168.63 13.09 167.368 13.31 166.596 13.444C165.824 13.579 165.094 13.849 164.973 14.044C164.852 14.24 164.313 14.4 163.776 14.4C163.239 14.4 162.8 14.58 162.8 14.8C162.8 15.02 162.26 15.2 161.6 15.2C160.94 15.2 160.4 15.38 160.4 15.6C160.4 15.82 159.95 16 159.4 16C158.85 16 158.4 16.18 158.4 16.4C158.4 16.62 157.95 16.8 157.4 16.8C156.85 16.8 156.4 16.98 156.4 17.2C156.4 17.42 155.95 17.6 155.4 17.6C154.85 17.6 154.4 17.78 154.4 18C154.4 18.22 154.04 18.4 153.6 18.4C153.16 18.4 152.8 18.58 152.8 18.8C152.8 19.02 152.535 19.2 152.212 19.2C151.889 19.2 150.983 19.56 150.2 20C149.417 20.44 148.501 20.8 148.164 20.8C147.828 20.8 147.664 20.98 147.8 21.2C147.936 21.42 147.677 21.6 147.224 21.6C146.771 21.6 146.4 21.78 146.4 22C146.4 22.22 146.04 22.4 145.6 22.4C145.16 22.4 144.8 22.58 144.8 22.8C144.8 23.02 144.53 23.2 144.2 23.2C143.87 23.2 143.6 23.38 143.6 23.6C143.6 23.82 143.24 24 142.8 24C142.36 24 142 24.153 142 24.339C142 24.526 141.28 25.003 140.4 25.4C139.52 25.797 138.8 26.274 138.8 26.461C138.8 26.647 138.564 26.8 138.275 26.8C137.987 26.8 137.364 27.16 136.892 27.6C136.42 28.04 135.88 28.4 135.692 28.4C135.504 28.4 135.002 28.717 134.575 29.104C134.149 29.491 132.99 30.436 132 31.204C128.812 33.677 127.895 34.517 123.006 39.44C117.67 44.813 116.623 45.959 115.185 48.001C114.643 48.77 114.101 49.49 113.981 49.6C112.539 50.915 111.893 52.577 112.365 53.755C112.639 54.44 113.192 56.26 113.594 57.8C114.658 61.873 116.269 66.621 117.802 70.2C120.525 76.557 122.489 80.462 125.652 85.802C130.249 93.563 134.272 98.176 141.265 103.704C150.725 111.182 151.135 115.706 142.6 118.444C140.511 119.115 130.252 119.118 126.8 118.45C111.956 115.576 101.477 110.643 91.6757 101.916C82.8797 94.083 82.8107 94.059 77.3887 96.83C59.4607 105.993 47.5227 127.734 49.5667 147.5C50.3167 154.749 52.2357 162.857 54.3717 167.8C64.6127 191.504 85.5427 205.911 118.6 212.013C135.376 215.11 149.851 207.238 145.994 197.115C144.132 192.226 142.403 190.73 126.503 180.255C109.625 169.136 106.234 164.76 108.665 157.234C109.491 154.676 111.794 152.433 113.701 152.33C118.484 152.072 120.379 152.761 134.2 159.781C149.886 167.749 155.263 169.763 166.2 171.772C184.143 175.066 206.641 173.534 225.2 167.754C226.19 167.446 227.63 167.003 228.4 166.77C229.17 166.538 230.16 166.196 230.6 166.012C231.04 165.827 232.93 165.085 234.8 164.362C256.87 155.835 276.89 134.044 284.376 110.4C284.829 108.97 285.836 105.792 286.614 103.337C289.166 95.29 292.431 92.75 297.116 95.165C305.804 99.645 307.235 115.371 300.813 135.8C299.914 138.66 299.018 141.36 298.82 141.8C298.623 142.24 298.135 143.41 297.735 144.4C292.931 156.283 283.531 169.058 273.204 177.737C271.332 179.311 269.71 180.693 269.6 180.809C269.49 180.925 267.485 182.584 265.145 184.495C254.274 193.375 254.476 198.243 265.798 200.235C270.643 201.088 280.751 200.702 286.6 199.44C287.04 199.346 288.48 199.047 289.8 198.777C327.98 190.963 350.264 167.525 354.998 130.2C355.305 127.78 355.679 125.035 355.829 124.1C356.015 122.944 355.958 122.4 355.651 122.4C355.403 122.4 355.2 122.213 355.2 121.985C355.2 121.756 354.12 119.963 352.8 118C351.48 116.037 350.4 114.356 350.4 114.266C350.4 113.676 337.909 100.4 337.355 100.4C337.221 100.4 336.251 99.68 335.2 98.8C334.149 97.92 333.104 97.2 332.878 97.2C332.652 97.2 332.407 97.057 332.333 96.883C332.26 96.709 331.03 95.764 329.6 94.783C328.17 93.802 326.762 92.775 326.471 92.5C326.181 92.225 325.635 92 325.26 92C324.884 92 324.317 91.64 324 91.2C323.683 90.76 323.193 90.4 322.912 90.4C322.63 90.4 322.4 90.22 322.4 90C322.4 89.78 322.21 89.6 321.978 89.6C321.746 89.6 320.496 88.88 319.2 88C317.904 87.12 316.654 86.4 316.422 86.4C316.19 86.4 316 86.22 316 86C316 85.78 315.764 85.6 315.475 85.6C315.187 85.6 314.564 85.24 314.092 84.8C313.62 84.36 312.956 84 312.617 84C312.278 84 312 83.841 312 83.647C312 83.452 311.64 83.199 311.2 83.084C310.584 82.923 310.4 82.538 310.4 81.414C310.4 80.542 310.239 80.052 310 80.2C309.774 80.34 309.6 80.012 309.6 79.447C309.6 78.897 309.42 78.336 309.2 78.2C308.98 78.064 308.8 77.603 308.8 77.176C308.8 76.749 308.64 76.4 308.445 76.4C308.249 76.4 307.964 75.725 307.811 74.9C307.658 74.075 307.25 73.085 306.904 72.7C306.559 72.315 306.405 72 306.562 72C306.719 72 306.097 70.605 305.179 68.9C304.261 67.195 303.071 64.96 302.536 63.933C302 62.906 301.3 61.849 300.981 61.584C300.661 61.319 300.4 60.854 300.4 60.551C300.4 60.248 300.25 60 300.068 60C299.885 60 299.481 59.505 299.17 58.9C298.86 58.295 298.289 57.509 297.903 57.153C297.516 56.797 297.2 56.301 297.2 56.049C297.2 55.798 296.66 55.028 296 54.337C295.34 53.646 294.8 52.928 294.8 52.741C294.8 52.554 294.08 51.659 293.2 50.752C292.32 49.845 291.6 48.926 291.6 48.71C291.6 48.186 279.737 36.4 279.21 36.4C278.985 36.4 278.8 36.22 278.8 36C278.8 35.78 278.615 35.6 278.389 35.6C278.162 35.6 277.397 35.06 276.689 34.401C274.444 32.313 272.508 30.8 272.081 30.8C271.853 30.8 271.607 30.634 271.533 30.432C271.38 30.008 267.14 27.303 264.2 25.753C263.1 25.173 262.14 24.541 262.067 24.349C261.993 24.157 261.588 24 261.167 24C260.745 24 260.4 23.82 260.4 23.6C260.4 23.38 260.04 23.2 259.6 23.2C259.16 23.2 258.8 23.02 258.8 22.8C258.8 22.58 258.44 22.4 258 22.4C257.56 22.4 257.2 22.22 257.2 22C257.2 21.78 256.84 21.6 256.4 21.6C255.96 21.6 255.6 21.464 255.6 21.298C255.6 21.131 255.015 20.76 254.3 20.471C253.585 20.183 252.687 19.779 252.305 19.574C251.923 19.368 251.338 19.2 251.005 19.2C250.672 19.2 250.4 19.02 250.4 18.8C250.4 18.58 249.86 18.4 249.2 18.4C248.54 18.4 248 18.22 248 18C248 17.78 247.651 17.6 247.224 17.6C246.797 17.6 246.336 17.42 246.2 17.2C246.064 16.98 245.513 16.8 244.976 16.8C244.439 16.8 244 16.62 244 16.4C244 16.18 243.46 16 242.8 16C242.14 16 241.6 15.82 241.6 15.6C241.6 15.38 241.161 15.2 240.624 15.2C240.087 15.2 239.536 15.02 239.4 14.8C239.264 14.58 238.544 14.4 237.8 14.4C237.056 14.4 236.336 14.22 236.2 14C236.064 13.78 235.333 13.6 234.576 13.6C233.819 13.6 233.2 13.439 233.2 13.242C233.2 13.045 232.525 12.787 231.7 12.668C230.875 12.549 229.3 12.248 228.2 12C226.288 11.568 224.416 11.265 218.2 10.381C216.66 10.162 213.87 9.898 212 9.794C210.13 9.69 207.43 9.432 206 9.219C203.125 8.792 196.425 8.81 192.4 9.254Z"/>
</mask>
<path fill-rule="evenodd" clip-rule="evenodd" d="M192.4 9.254C190.97 9.412 188.45 9.64 186.8 9.76C185.15 9.88 182.72 10.152 181.4 10.366C180.08 10.58 178.01 10.877 176.8 11.028C175.59 11.178 174.411 11.45 174.181 11.633C173.95 11.815 173.095 12.009 172.281 12.064C171.466 12.119 170.8 12.287 170.8 12.438C170.8 12.589 170.17 12.822 169.4 12.956C168.63 13.09 167.368 13.31 166.596 13.444C165.824 13.579 165.094 13.849 164.973 14.044C164.852 14.24 164.313 14.4 163.776 14.4C163.239 14.4 162.8 14.58 162.8 14.8C162.8 15.02 162.26 15.2 161.6 15.2C160.94 15.2 160.4 15.38 160.4 15.6C160.4 15.82 159.95 16 159.4 16C158.85 16 158.4 16.18 158.4 16.4C158.4 16.62 157.95 16.8 157.4 16.8C156.85 16.8 156.4 16.98 156.4 17.2C156.4 17.42 155.95 17.6 155.4 17.6C154.85 17.6 154.4 17.78 154.4 18C154.4 18.22 154.04 18.4 153.6 18.4C153.16 18.4 152.8 18.58 152.8 18.8C152.8 19.02 152.535 19.2 152.212 19.2C151.889 19.2 150.983 19.56 150.2 20C149.417 20.44 148.501 20.8 148.164 20.8C147.828 20.8 147.664 20.98 147.8 21.2C147.936 21.42 147.677 21.6 147.224 21.6C146.771 21.6 146.4 21.78 146.4 22C146.4 22.22 146.04 22.4 145.6 22.4C145.16 22.4 144.8 22.58 144.8 22.8C144.8 23.02 144.53 23.2 144.2 23.2C143.87 23.2 143.6 23.38 143.6 23.6C143.6 23.82 143.24 24 142.8 24C142.36 24 142 24.153 142 24.339C142 24.526 141.28 25.003 140.4 25.4C139.52 25.797 138.8 26.274 138.8 26.461C138.8 26.647 138.564 26.8 138.275 26.8C137.987 26.8 137.364 27.16 136.892 27.6C136.42 28.04 135.88 28.4 135.692 28.4C135.504 28.4 135.002 28.717 134.575 29.104C134.149 29.491 132.99 30.436 132 31.204C128.812 33.677 127.895 34.517 123.006 39.44C117.67 44.813 116.623 45.959 115.185 48.001C114.643 48.77 114.101 49.49 113.981 49.6C112.539 50.915 111.893 52.577 112.365 53.755C112.639 54.44 113.192 56.26 113.594 57.8C114.658 61.873 116.269 66.621 117.802 70.2C120.525 76.557 122.489 80.462 125.652 85.802C130.249 93.563 134.272 98.176 141.265 103.704C150.725 111.182 151.135 115.706 142.6 118.444C140.511 119.115 130.252 119.118 126.8 118.45C111.956 115.576 101.477 110.643 91.6757 101.916C82.8797 94.083 82.8107 94.059 77.3887 96.83C59.4607 105.993 47.5227 127.734 49.5667 147.5C50.3167 154.749 52.2357 162.857 54.3717 167.8C64.6127 191.504 85.5427 205.911 118.6 212.013C135.376 215.11 149.851 207.238 145.994 197.115C144.132 192.226 142.403 190.73 126.503 180.255C109.625 169.136 106.234 164.76 108.665 157.234C109.491 154.676 111.794 152.433 113.701 152.33C118.484 152.072 120.379 152.761 134.2 159.781C149.886 167.749 155.263 169.763 166.2 171.772C184.143 175.066 206.641 173.534 225.2 167.754C226.19 167.446 227.63 167.003 228.4 166.77C229.17 166.538 230.16 166.196 230.6 166.012C231.04 165.827 232.93 165.085 234.8 164.362C256.87 155.835 276.89 134.044 284.376 110.4C284.829 108.97 285.836 105.792 286.614 103.337C289.166 95.29 292.431 92.75 297.116 95.165C305.804 99.645 307.235 115.371 300.813 135.8C299.914 138.66 299.018 141.36 298.82 141.8C298.623 142.24 298.135 143.41 297.735 144.4C292.931 156.283 283.531 169.058 273.204 177.737C271.332 179.311 269.71 180.693 269.6 180.809C269.49 180.925 267.485 182.584 265.145 184.495C254.274 193.375 254.476 198.243 265.798 200.235C270.643 201.088 280.751 200.702 286.6 199.44C287.04 199.346 288.48 199.047 289.8 198.777C327.98 190.963 350.264 167.525 354.998 130.2C355.305 127.78 355.679 125.035 355.829 124.1C356.015 122.944 355.958 122.4 355.651 122.4C355.403 122.4 355.2 122.213 355.2 121.985C355.2 121.756 354.12 119.963 352.8 118C351.48 116.037 350.4 114.356 350.4 114.266C350.4 113.676 337.909 100.4 337.355 100.4C337.221 100.4 336.251 99.68 335.2 98.8C334.149 97.92 333.104 97.2 332.878 97.2C332.652 97.2 332.407 97.057 332.333 96.883C332.26 96.709 331.03 95.764 329.6 94.783C328.17 93.802 326.762 92.775 326.471 92.5C326.181 92.225 325.635 92 325.26 92C324.884 92 324.317 91.64 324 91.2C323.683 90.76 323.193 90.4 322.912 90.4C322.63 90.4 322.4 90.22 322.4 90C322.4 89.78 322.21 89.6 321.978 89.6C321.746 89.6 320.496 88.88 319.2 88C317.904 87.12 316.654 86.4 316.422 86.4C316.19 86.4 316 86.22 316 86C316 85.78 315.764 85.6 315.475 85.6C315.187 85.6 314.564 85.24 314.092 84.8C313.62 84.36 312.956 84 312.617 84C312.278 84 312 83.841 312 83.647C312 83.452 311.64 83.199 311.2 83.084C310.584 82.923 310.4 82.538 310.4 81.414C310.4 80.542 310.239 80.052 310 80.2C309.774 80.34 309.6 80.012 309.6 79.447C309.6 78.897 309.42 78.336 309.2 78.2C308.98 78.064 308.8 77.603 308.8 77.176C308.8 76.749 308.64 76.4 308.445 76.4C308.249 76.4 307.964 75.725 307.811 74.9C307.658 74.075 307.25 73.085 306.904 72.7C306.559 72.315 306.405 72 306.562 72C306.719 72 306.097 70.605 305.179 68.9C304.261 67.195 303.071 64.96 302.536 63.933C302 62.906 301.3 61.849 300.981 61.584C300.661 61.319 300.4 60.854 300.4 60.551C300.4 60.248 300.25 60 300.068 60C299.885 60 299.481 59.505 299.17 58.9C298.86 58.295 298.289 57.509 297.903 57.153C297.516 56.797 297.2 56.301 297.2 56.049C297.2 55.798 296.66 55.028 296 54.337C295.34 53.646 294.8 52.928 294.8 52.741C294.8 52.554 294.08 51.659 293.2 50.752C292.32 49.845 291.6 48.926 291.6 48.71C291.6 48.186 279.737 36.4 279.21 36.4C278.985 36.4 278.8 36.22 278.8 36C278.8 35.78 278.615 35.6 278.389 35.6C278.162 35.6 277.397 35.06 276.689 34.401C274.444 32.313 272.508 30.8 272.081 30.8C271.853 30.8 271.607 30.634 271.533 30.432C271.38 30.008 267.14 27.303 264.2 25.753C263.1 25.173 262.14 24.541 262.067 24.349C261.993 24.157 261.588 24 261.167 24C260.745 24 260.4 23.82 260.4 23.6C260.4 23.38 260.04 23.2 259.6 23.2C259.16 23.2 258.8 23.02 258.8 22.8C258.8 22.58 258.44 22.4 258 22.4C257.56 22.4 257.2 22.22 257.2 22C257.2 21.78 256.84 21.6 256.4 21.6C255.96 21.6 255.6 21.464 255.6 21.298C255.6 21.131 255.015 20.76 254.3 20.471C253.585 20.183 252.687 19.779 252.305 19.574C251.923 19.368 251.338 19.2 251.005 19.2C250.672 19.2 250.4 19.02 250.4 18.8C250.4 18.58 249.86 18.4 249.2 18.4C248.54 18.4 248 18.22 248 18C248 17.78 247.651 17.6 247.224 17.6C246.797 17.6 246.336 17.42 246.2 17.2C246.064 16.98 245.513 16.8 244.976 16.8C244.439 16.8 244 16.62 244 16.4C244 16.18 243.46 16 242.8 16C242.14 16 241.6 15.82 241.6 15.6C241.6 15.38 241.161 15.2 240.624 15.2C240.087 15.2 239.536 15.02 239.4 14.8C239.264 14.58 238.544 14.4 237.8 14.4C237.056 14.4 236.336 14.22 236.2 14C236.064 13.78 235.333 13.6 234.576 13.6C233.819 13.6 233.2 13.439 233.2 13.242C233.2 13.045 232.525 12.787 231.7 12.668C230.875 12.549 229.3 12.248 228.2 12C226.288 11.568 224.416 11.265 218.2 10.381C216.66 10.162 213.87 9.898 212 9.794C210.13 9.69 207.43 9.432 206 9.219C203.125 8.792 196.425 8.81 192.4 9.254Z" fill="#F5994B"/>
<path fill-rule="evenodd" clip-rule="evenodd" d="M192.4 9.254C190.97 9.412 188.45 9.64 186.8 9.76C185.15 9.88 182.72 10.152 181.4 10.366C180.08 10.58 178.01 10.877 176.8 11.028C175.59 11.178 174.411 11.45 174.181 11.633C173.95 11.815 173.095 12.009 172.281 12.064C171.466 12.119 170.8 12.287 170.8 12.438C170.8 12.589 170.17 12.822 169.4 12.956C168.63 13.09 167.368 13.31 166.596 13.444C165.824 13.579 165.094 13.849 164.973 14.044C164.852 14.24 164.313 14.4 163.776 14.4C163.239 14.4 162.8 14.58 162.8 14.8C162.8 15.02 162.26 15.2 161.6 15.2C160.94 15.2 160.4 15.38 160.4 15.6C160.4 15.82 159.95 16 159.4 16C158.85 16 158.4 16.18 158.4 16.4C158.4 16.62 157.95 16.8 157.4 16.8C156.85 16.8 156.4 16.98 156.4 17.2C156.4 17.42 155.95 17.6 155.4 17.6C154.85 17.6 154.4 17.78 154.4 18C154.4 18.22 154.04 18.4 153.6 18.4C153.16 18.4 152.8 18.58 152.8 18.8C152.8 19.02 152.535 19.2 152.212 19.2C151.889 19.2 150.983 19.56 150.2 20C149.417 20.44 148.501 20.8 148.164 20.8C147.828 20.8 147.664 20.98 147.8 21.2C147.936 21.42 147.677 21.6 147.224 21.6C146.771 21.6 146.4 21.78 146.4 22C146.4 22.22 146.04 22.4 145.6 22.4C145.16 22.4 144.8 22.58 144.8 22.8C144.8 23.02 144.53 23.2 144.2 23.2C143.87 23.2 143.6 23.38 143.6 23.6C143.6 23.82 143.24 24 142.8 24C142.36 24 142 24.153 142 24.339C142 24.526 141.28 25.003 140.4 25.4C139.52 25.797 138.8 26.274 138.8 26.461C138.8 26.647 138.564 26.8 138.275 26.8C137.987 26.8 137.364 27.16 136.892 27.6C136.42 28.04 135.88 28.4 135.692 28.4C135.504 28.4 135.002 28.717 134.575 29.104C134.149 29.491 132.99 30.436 132 31.204C128.812 33.677 127.895 34.517 123.006 39.44C117.67 44.813 116.623 45.959 115.185 48.001C114.643 48.77 114.101 49.49 113.981 49.6C112.539 50.915 111.893 52.577 112.365 53.755C112.639 54.44 113.192 56.26 113.594 57.8C114.658 61.873 116.269 66.621 117.802 70.2C120.525 76.557 122.489 80.462 125.652 85.802C130.249 93.563 134.272 98.176 141.265 103.704C150.725 111.182 151.135 115.706 142.6 118.444C140.511 119.115 130.252 119.118 126.8 118.45C111.956 115.576 101.477 110.643 91.6757 101.916C82.8797 94.083 82.8107 94.059 77.3887 96.83C59.4607 105.993 47.5227 127.734 49.5667 147.5C50.3167 154.749 52.2357 162.857 54.3717 167.8C64.6127 191.504 85.5427 205.911 118.6 212.013C135.376 215.11 149.851 207.238 145.994 197.115C144.132 192.226 142.403 190.73 126.503 180.255C109.625 169.136 106.234 164.76 108.665 157.234C109.491 154.676 111.794 152.433 113.701 152.33C118.484 152.072 120.379 152.761 134.2 159.781C149.886 167.749 155.263 169.763 166.2 171.772C184.143 175.066 206.641 173.534 225.2 167.754C226.19 167.446 227.63 167.003 228.4 166.77C229.17 166.538 230.16 166.196 230.6 166.012C231.04 165.827 232.93 165.085 234.8 164.362C256.87 155.835 276.89 134.044 284.376 110.4C284.829 108.97 285.836 105.792 286.614 103.337C289.166 95.29 292.431 92.75 297.116 95.165C305.804 99.645 307.235 115.371 300.813 135.8C299.914 138.66 299.018 141.36 298.82 141.8C298.623 142.24 298.135 143.41 297.735 144.4C292.931 156.283 283.531 169.058 273.204 177.737C271.332 179.311 269.71 180.693 269.6 180.809C269.49 180.925 267.485 182.584 265.145 184.495C254.274 193.375 254.476 198.243 265.798 200.235C270.643 201.088 280.751 200.702 286.6 199.44C287.04 199.346 288.48 199.047 289.8 198.777C327.98 190.963 350.264 167.525 354.998 130.2C355.305 127.78 355.679 125.035 355.829 124.1C356.015 122.944 355.958 122.4 355.651 122.4C355.403 122.4 355.2 122.213 355.2 121.985C355.2 121.756 354.12 119.963 352.8 118C351.48 116.037 350.4 114.356 350.4 114.266C350.4 113.676 337.909 100.4 337.355 100.4C337.221 100.4 336.251 99.68 335.2 98.8C334.149 97.92 333.104 97.2 332.878 97.2C332.652 97.2 332.407 97.057 332.333 96.883C332.26 96.709 331.03 95.764 329.6 94.783C328.17 93.802 326.762 92.775 326.471 92.5C326.181 92.225 325.635 92 325.26 92C324.884 92 324.317 91.64 324 91.2C323.683 90.76 323.193 90.4 322.912 90.4C322.63 90.4 322.4 90.22 322.4 90C322.4 89.78 322.21 89.6 321.978 89.6C321.746 89.6 320.496 88.88 319.2 88C317.904 87.12 316.654 86.4 316.422 86.4C316.19 86.4 316 86.22 316 86C316 85.78 315.764 85.6 315.475 85.6C315.187 85.6 314.564 85.24 314.092 84.8C313.62 84.36 312.956 84 312.617 84C312.278 84 312 83.841 312 83.647C312 83.452 311.64 83.199 311.2 83.084C310.584 82.923 310.4 82.538 310.4 81.414C310.4 80.542 310.239 80.052 310 80.2C309.774 80.34 309.6 80.012 309.6 79.447C309.6 78.897 309.42 78.336 309.2 78.2C308.98 78.064 308.8 77.603 308.8 77.176C308.8 76.749 308.64 76.4 308.445 76.4C308.249 76.4 307.964 75.725 307.811 74.9C307.658 74.075 307.25 73.085 306.904 72.7C306.559 72.315 306.405 72 306.562 72C306.719 72 306.097 70.605 305.179 68.9C304.261 67.195 303.071 64.96 302.536 63.933C302 62.906 301.3 61.849 300.981 61.584C300.661 61.319 300.4 60.854 300.4 60.551C300.4 60.248 300.25 60 300.068 60C299.885 60 299.481 59.505 299.17 58.9C298.86 58.295 298.289 57.509 297.903 57.153C297.516 56.797 297.2 56.301 297.2 56.049C297.2 55.798 296.66 55.028 296 54.337C295.34 53.646 294.8 52.928 294.8 52.741C294.8 52.554 294.08 51.659 293.2 50.752C292.32 49.845 291.6 48.926 291.6 48.71C291.6 48.186 279.737 36.4 279.21 36.4C278.985 36.4 278.8 36.22 278.8 36C278.8 35.78 278.615 35.6 278.389 35.6C278.162 35.6 277.397 35.06 276.689 34.401C274.444 32.313 272.508 30.8 272.081 30.8C271.853 30.8 271.607 30.634 271.533 30.432C271.38 30.008 267.14 27.303 264.2 25.753C263.1 25.173 262.14 24.541 262.067 24.349C261.993 24.157 261.588 24 261.167 24C260.745 24 260.4 23.82 260.4 23.6C260.4 23.38 260.04 23.2 259.6 23.2C259.16 23.2 258.8 23.02 258.8 22.8C258.8 22.58 258.44 22.4 258 22.4C257.56 22.4 257.2 22.22 257.2 22C257.2 21.78 256.84 21.6 256.4 21.6C255.96 21.6 255.6 21.464 255.6 21.298C255.6 21.131 255.015 20.76 254.3 20.471C253.585 20.183 252.687 19.779 252.305 19.574C251.923 19.368 251.338 19.2 251.005 19.2C250.672 19.2 250.4 19.02 250.4 18.8C250.4 18.58 249.86 18.4 249.2 18.4C248.54 18.4 248 18.22 248 18C248 17.78 247.651 17.6 247.224 17.6C246.797 17.6 246.336 17.42 246.2 17.2C246.064 16.98 245.513 16.8 244.976 16.8C244.439 16.8 244 16.62 244 16.4C244 16.18 243.46 16 242.8 16C242.14 16 241.6 15.82 241.6 15.6C241.6 15.38 241.161 15.2 240.624 15.2C240.087 15.2 239.536 15.02 239.4 14.8C239.264 14.58 238.544 14.4 237.8 14.4C237.056 14.4 236.336 14.22 236.2 14C236.064 13.78 235.333 13.6 234.576 13.6C233.819 13.6 233.2 13.439 233.2 13.242C233.2 13.045 232.525 12.787 231.7 12.668C230.875 12.549 229.3 12.248 228.2 12C226.288 11.568 224.416 11.265 218.2 10.381C216.66 10.162 213.87 9.898 212 9.794C210.13 9.69 207.43 9.432 206 9.219C203.125 8.792 196.425 8.81 192.4 9.254Z" stroke="#E0803B" stroke-width="16" mask="url(#path-3-outside-3_597_7)"/>
<path d="M180.587 76.5469C180.192 76.1184 178.636 75.6764 177.688 75.8555C177.252 75.9378 177.031 76.3931 176.902 76.8205C176.772 77.2478 176.772 77.7333 176.9 78.1296C177.142 78.8797 177.934 79.3855 178.738 79.8438C179.527 80.2932 180.558 80.1106 181.461 79.703C181.889 79.5096 182.108 79.0751 182.258 78.6681C182.408 78.2612 182.445 77.8262 182.263 77.5113C181.422 76.0545 178.763 75.8871 176.366 75.9013C175.896 75.9041 175.953 76.7765 176.112 77.3051C176.428 78.3546 177.301 78.9612 177.992 79.3746C178.804 79.675 179.71 79.7987 180.51 79.6261C180.851 79.4534 181.06 79.108 180.829 78.6506" stroke="black" stroke-width="20" stroke-linecap="round"/>
<path d="M161.285 42.0199C160.931 41.4174 159.217 40.5052 158.059 40.4756C157.527 40.4619 157.152 40.9402 156.892 41.4089C156.632 41.8775 156.51 42.4471 156.559 42.9444C156.654 43.8857 157.454 44.6794 158.283 45.4205C159.095 46.1475 160.35 46.1939 161.513 45.944C162.064 45.8254 162.431 45.371 162.71 44.9314C162.989 44.4919 163.142 43.9908 163.008 43.5753C162.389 41.6533 159.313 40.7846 156.496 40.1949C155.945 40.0794 155.79 41.1174 155.843 41.7778C155.949 43.089 156.819 44.0215 157.526 44.6815C158.402 45.2391 159.434 45.6134 160.417 45.6133C160.861 45.4969 161.193 45.1445 161.038 44.5495" stroke="#FFD1A3" stroke-width="24.0045" stroke-linecap="round"/>
<path d="M249.786 39.8469C250.46 39.6585 251.78 38.2347 252.105 37.1227C252.254 36.6121 251.887 36.1276 251.501 35.7565C251.114 35.3853 250.595 35.121 250.101 35.042C249.167 34.8924 248.195 35.4635 247.267 36.0747C246.356 36.6741 245.99 37.876 245.935 39.0637C245.908 39.627 246.254 40.0978 246.607 40.4798C246.961 40.8619 247.406 41.1378 247.842 41.1148C249.858 41.0081 251.485 38.2561 252.775 35.684C253.028 35.1802 252.064 34.7656 251.412 34.648C250.118 34.4145 248.993 35.0178 248.175 35.5322C247.411 36.2367 246.786 37.1384 246.535 38.0887C246.533 38.5475 246.789 38.9588 247.404 38.961" stroke="#FFD1A3" stroke-width="24.0045" stroke-linecap="round"/>
<path d="M247.278 69.3684C245.924 69.3684 243.233 69.6347 242.622 70.2914C242.288 70.6514 242.048 71.1883 241.906 71.665C241.764 72.1417 241.764 72.5731 242.199 72.8719C244.502 74.4534 246.404 73.3165 247.161 72.8824C247.538 72.6659 247.758 72.2455 247.731 71.9C247.703 71.5546 247.385 71.2428 246.936 71.0822C246.488 70.9215 245.919 70.9215 245.333 71.2127" stroke="black" stroke-width="20" stroke-linecap="round"/>
<path d="M196.872 168.84C197.624 168.84 201.847 167.578 204.637 166.466C207.349 165.385 209.56 163.094 213.845 155.922C218.633 147.906 217.647 140.519 217.815 139.047C218.202 135.684 219.347 128.389 219.767 123.83C219.946 121.883 219.914 119.968 219.986 119.603C221.351 112.675 221.639 133.184 222.087 135.504C222.733 138.848 224.298 142.278 226.879 148.248C227.684 150.11 228.577 150.934 229.285 151.462C231.315 152.973 238.938 152.312 242.895 151.814C245.965 151.427 247.441 149.686 249.191 148.664C249.605 148.422 250.021 148.274 250.037 148.255C248.882 148.554 247.665 148.797 246.816 149.126C246.394 149.286 245.993 149.432 244.95 149.987" stroke="#E0803B" stroke-width="20" stroke-linecap="round"/>
<path d="M96.2088 246.352C95.878 246.24 94.5986 246.183 93.1995 246.33C92.876 246.364 93.4716 246.772 93.9534 246.562C94.4352 246.352 94.8194 245.628 95.0174 244.736C95.2153 243.844 95.2153 242.806 95.2153 242.018" stroke="#FFE01C" stroke-width="20" stroke-linecap="round"/>
<path d="M310.731 225.942C310.783 225.789 310.834 225.636 311.089 225.38C311.343 225.124 311.8 224.77 312.271 224.404" stroke="#FFE01C" stroke-width="20" stroke-linecap="round"/>
<path d="M352.693 150.243C352.693 150.33 353.224 150.162 353.885 149.56C354.188 149.285 353.727 148.617 353.286 148.355C352.845 148.094 352.26 148.142 352.18 148.393C352.101 148.644 352.544 149.095 354.103 149.108" stroke="#FFE01C" stroke-width="20" stroke-linecap="round"/>
<path d="M48.4681 161.713C48.4681 161.801 48.6744 161.295 48.6311 160.298C47.6703 159.531 46.0606 159.198 44.5634 159.437C43.943 159.675 43.6055 160.152 44.8357 160.94" stroke="#FFE01C" stroke-width="20" stroke-linecap="round"/>
<path d="M121.459 162.368C121.459 162.462 120.832 162.511 120.128 162.777C119.869 162.875 120.541 163.575 121.191 163.819C121.84 164.063 122.633 164.003 123.209 163.719C123.786 163.435 124.121 162.929 124.336 162.257" stroke="#FFE01C" stroke-width="20" stroke-linecap="round"/>
<path d="M115.945 99.0068C115.856 99.0068 115.763 99.612 115.993 100.578C116.098 101.02 116.87 101.037 117.372 100.834C117.873 100.632 118.257 100.126 118.351 99.5875C118.445 99.0491 118.236 98.4935 117.975 98.4625C117.714 98.4314 117.406 98.9418 117.237 99.7643" stroke="#FFE01C" stroke-width="20" stroke-linecap="round"/>
<path d="M330.229 121.858L330.629 122.624" stroke="#FFE01C" stroke-width="20" stroke-linecap="round"/>
<path d="M257.515 243.153C257.47 243.153 257.426 243.153 257.125 243.27C256.824 243.386 256.267 243.619 255.93 245.289" stroke="#FFE01C" stroke-width="20" stroke-linecap="round"/>
<path d="M255.627 201.985L255.487 200.4" stroke="#FFE01C" stroke-width="20" stroke-linecap="round"/>
<path d="M221.174 162.715C221.174 162.772 222.648 162.802 225.083 162.768C226.445 162.666 227.376 162.458 228.314 162.156C228.734 161.994 229.041 161.811 229.357 161.624" stroke="#E0803B" stroke-width="20" stroke-linecap="round"/>
<path d="M219.834 127.554C219.834 130.746 220.199 138.354 220.731 141.189C221.234 143.866 221.695 146.787 222.159 149.777C222.86 154.291 221.706 158.62 220.284 160.748C219.547 161.851 217.367 162.613 214.74 163.761C213.54 164.285 212.447 165.044 211.915 165.451C210.177 166.782 216.674 164.727 220.188 164.559C222.989 164.424 225.639 163.686 228.406 163.083C231.227 162.467 234.091 161.948 236.948 161.027C239.382 159.975 241.753 158.864 244.471 157.524C245.186 157.192 245.879 156.867 248.037 156.041" stroke="black" stroke-width="15" stroke-linecap="round"/>
<path d="M101.472 54.9346C101.472 54.8672 101.472 47.9644 101.585 37.1438C101.649 30.9433 102.957 28.7033 104.292 27.1426C105.611 25.6005 107.105 23.8345 108.646 22.6547C109.387 22.0871 110.35 21.569 111.727 21.1229C113.571 20.5253 115.27 21.2836 116.222 21.9257C117.159 22.5931 118.102 23.8118 118.994 25.3317C119.417 25.9809 119.781 26.382 120.156 26.7953" stroke="black" stroke-width="15" stroke-linecap="round"/>
<path d="M286.488 32.1732C287.59 31.3024 290.797 28.5423 293.375 26.9573C295.93 25.3863 299.116 26.2494 301.2 26.5495C302.426 26.7261 303.373 27.392 303.971 28.0671C305.312 29.5822 304.946 32.4092 305.241 35.2791C305.457 37.377 305.852 39.2627 306.113 41.4646C306.422 43.4227 306.678 45.3372 306.951 47.2686C307.014 47.8273 307.055 48.4677 307.198 49.1276" stroke="black" stroke-width="15" stroke-linecap="round"/>
<path d="M47.9189 151.726C47.9189 151.627 47.9189 150.932 48.0101 149.873C48.0465 149.45 48.2835 149.293 48.5364 149.166C49.1071 148.956 49.6724 148.783 50.1257 148.6C50.3412 148.503 50.5274 148.4 51.1659 148.06" stroke="black" stroke-width="4" stroke-linecap="round"/>
<path d="M124.589 155.409C124.589 154.662 125.08 151.525 125.952 150.323C126.172 150.234 126.409 150.173 126.68 150.111C126.952 150.05 127.25 149.989 127.884 149.926" stroke="black" stroke-width="4" stroke-linecap="round"/>
<path d="M119.362 92.0919C119.362 91.5953 119.934 88.4505 120.626 86.4212C120.787 86.2114 120.987 86.1342 121.632 86.0945C122.277 86.0547 123.362 86.0547 124.82 86.2194" stroke="black" stroke-width="4" stroke-linecap="round"/>
<path d="M96.8745 236.448C96.8745 233.849 97.0705 229.513 97.4768 229.358C97.9055 229.251 98.4074 229.209 99.0937 229.2C99.5032 229.191 100.037 229.173 100.587 229.154" stroke="black" stroke-width="4" stroke-linecap="round"/>
<path d="M258.469 236.969C258.469 236.087 258.786 234.106 259.131 233.213C259.238 232.937 259.168 232.564 259.271 232.317C259.581 231.944 260.12 231.765 260.889 231.692C261.331 231.667 261.876 231.667 262.439 231.667" stroke="black" stroke-width="4" stroke-linecap="round"/>
<path d="M256.225 193.153C256.225 192.565 256.337 190.902 256.612 190.319C256.776 190.096 256.988 190.023 257.707 189.985C258.426 189.947 259.645 189.947 260.9 189.947" stroke="black" stroke-width="4" stroke-linecap="round"/>
<path d="M309.013 220.064C309.013 217.962 309.212 213.999 309.621 213.821C310.493 213.606 311.149 213.379 311.62 212.991C311.894 212.703 312.239 212.23 312.595 211.743" stroke="black" stroke-width="4" stroke-linecap="round"/>
<path d="M351.035 140.275C351.035 138.972 351.057 136.199 351.401 135.854C352.345 135.737 353.223 135.694 353.705 135.62C353.95 135.588 354.194 135.567 354.446 135.546" stroke="black" stroke-width="4" stroke-linecap="round"/>
<path d="M331.288 115.331C331.234 114.205 331.052 111.49 331.148 110.61C331.839 110.105 332.52 109.857 333.673 109.725C334.587 109.68 336.171 109.68 337.802 109.68" stroke="black" stroke-width="4" stroke-linecap="round"/>
</svg>
